<svg version="1.1" xmlns="http://www.w3.org/2000/svg" xmlns:xlink="http://www.w3.org/1999/xlink" width="245.75386" height="95.45837" viewBox="0,0,245.75386,95.45837"><g transform="translate(-117.08732,-132.27082)"><g data-paper-data="{&quot;isPaintingLayer&quot;:true}" fill-rule="nonzero" stroke-linejoin="miter" stroke-miterlimit="10" stroke-dasharray="" stroke-dashoffset="0" style="mix-blend-mode: normal"><path d="M316.74448,223.01562v-34.93596" fill="none" stroke="#a85a00" stroke-width="4" stroke-linecap="round"/><path d="M329.06539,223.21299v-34.93595" fill="none" stroke="#a85a00" stroke-width="4" stroke-linecap="round"/><path d="M330.22408,219.32572h-15.20451" fill="none" stroke="#cf8126" stroke-width="4" stroke-linecap="round"/><path d="M330.48624,212.89679h-15.20452" data-paper-data="{&quot;index&quot;:null}" fill="none" stroke="#cf8126" stroke-width="4" stroke-linecap="round"/><path d="M330.48624,200.29389h-15.20452" fill="none" stroke="#cf8126" stroke-width="4" stroke-linecap="round"/><path d="M330.48624,206.26786h-15.20452" fill="none" stroke="#cf8126" stroke-width="4" stroke-linecap="round"/><g stroke-width="0.25"><path d="M325.85154,211.07985l-0.8817,-4.06161l1.71978,-0.37333l0.8817,4.06161z" fill="#ffca68" stroke="#000000" stroke-linecap="butt"/><path d="M318.0855,209.14015l1.64883,-3.81516l1.61543,0.69815l-1.64883,3.81516z" fill="#ffca68" stroke="#000000" stroke-linecap="butt"/><path d="M333.51644,195.30742c0.35767,0.3296 0.43176,0.78004 0.19939,1.26334c-0.4814,0.75122 -1.10267,1.87919 -2.18014,2.85353c-1.44253,1.30447 -1.83543,0.85973 -2.04017,0.67106c-0.17605,-0.16224 0.69226,-1.03938 1.37624,-2.12033c0.7056,-1.11512 1.2329,-2.43516 1.40027,-2.61677c0.3296,-0.35767 0.88674,-0.38042 1.2444,-0.05082z" data-paper-data="{&quot;index&quot;:null}" fill="#ffca68" stroke="#000000" stroke-linecap="butt"/><path d="M314.95854,200.45617c0.4814,-0.75122 1.10267,-1.87919 2.18014,-2.85353c1.44253,-1.30447 1.83543,-0.85973 2.04017,-0.67106c0.17605,0.16224 -0.69226,1.03938 -1.37624,2.12033c-0.7056,1.11512 -1.2329,2.43516 -1.40027,2.61677c-0.3296,0.35767 -0.88674,0.38042 -1.2444,0.05082c-0.35767,-0.3296 -0.43176,-0.78004 -0.19939,-1.26334z" fill="#ffca68" stroke="#000000" stroke-linecap="butt"/><path d="M317.34162,192.32303c0.00257,-0.02749 0.19844,-1.47354 0.42123,-2.08678c0.22823,-0.6282 1.95453,-0.50046 2.42356,-0.46924c0.73667,0.04903 8.38608,0.84478 11.32159,1.63601c0.36393,0.09809 1.00389,0.44657 1.00223,1.2308c-0.00123,0.57704 -0.56486,1.99851 -0.56789,2.03097c-0.00517,0.05537 -0.26199,0.49155 -0.64009,0.49486c-2.25826,0.01975 -10.22078,-2.26983 -12.44484,-2.62126c-0.13215,-0.02088 -0.11214,0.30631 -0.24083,0.49122c-0.17443,0.25063 -0.48244,0.38406 -0.50908,0.38157c-0.43239,-0.04035 -0.80625,-0.65577 -0.76589,-1.08815z" fill="#ad7000" stroke="#000000" stroke-linecap="butt"/><path d="M317.42779,203.11891l1.55696,-12.21688l12.16539,1.5504l-1.55696,12.21688z" fill="#ffca68" stroke="#000000" stroke-linecap="butt"/><path d="M317.41714,203.20248l0.54397,-4.2683l-1.50793,-0.60738c0,0 0.47652,-0.53619 0.78299,-0.77337c0.27678,-0.2142 0.89681,-0.56014 0.89681,-0.56014l4.80844,0.57506c-0.00475,0.02435 -0.00872,0.04901 -0.0119,0.07398c-0.07843,0.6154 0.35688,1.17787 0.97228,1.2563c0.6154,0.07843 1.17787,-0.35688 1.2563,-0.97228c0.00318,-0.02496 0.00552,-0.04984 0.00703,-0.0746l5.29129,0.6366l1.2312,0.85362l-1.04969,0.78289l-0.51832,0.41388l-0.53707,4.21415z" fill="#ff0000" stroke="#000000" stroke-linecap="butt"/><path d="M322.67267,193.88215c0.06013,-0.47181 0.49135,-0.80554 0.96316,-0.74541c0.47181,0.06013 0.80554,0.49135 0.74541,0.96316c-0.06013,0.47181 -0.49135,0.80554 -0.96316,0.74541c-0.47181,-0.06013 -0.80554,-0.49135 -0.74541,-0.96316z" fill="#ffffff" stroke="#000000" stroke-linecap="butt"/><path d="M324.79928,194.07768c0.06013,-0.47181 0.49135,-0.80554 0.96316,-0.74541c0.47181,0.06013 0.80554,0.49135 0.74541,0.96316c-0.06013,0.47181 -0.49135,0.80554 -0.96316,0.74541c-0.47181,-0.06013 -0.80554,-0.49135 -0.74541,-0.96316z" fill="#ffffff" stroke="#000000" stroke-linecap="butt"/><path d="M323.34347,193.65364c0.01961,-0.15385 0.16022,-0.26268 0.31407,-0.24307c0.15385,0.01961 0.26268,0.16022 0.24307,0.31407c-0.01961,0.15385 -0.16022,0.26268 -0.31407,0.24307c-0.15385,-0.01961 -0.26268,-0.16022 -0.24307,-0.31407z" fill="#000000" stroke="none" stroke-linecap="butt"/><path d="M325.4781,193.77861c0.01961,-0.15385 0.16022,-0.26268 0.31407,-0.24307c0.15385,0.01961 0.26268,0.16022 0.24307,0.31407c-0.01961,0.15385 -0.16022,0.26268 -0.31407,0.24307c-0.15385,-0.01961 -0.26268,-0.16022 -0.24307,-0.31407z" fill="#000000" stroke="none" stroke-linecap="butt"/><path d="M325.33509,195.928c0,0 -0.15398,0.68385 -0.4824,0.86847c-0.18966,0.10662 -0.43085,0.12842 -0.55752,0.10829c-0.19757,-0.03141 -0.5713,-0.25862 -0.75267,-0.52206c-0.11295,-0.16406 -0.18436,-0.78884 -0.18436,-0.78884z" fill="#000000" stroke="#000000" stroke-linecap="round"/><path d="M324.37432,200.91393l1.26254,0.11703l-1.13379,0.44781l0.50098,1.79688l-1.57393,-1.25357l-1.87525,0.96755l0.99227,-1.62851l-1.08472,-0.79635l1.48224,0.25471l0.97156,-1.60921z" fill="#df67ff" stroke="#000000" stroke-linecap="round"/><path d="M318.04228,204.34392c-1.01537,-0.41706 -0.58213,-1.4333 -0.58213,-1.4333l12.13639,1.55494c0,0 0.08305,1.23396 -1.82045,1.06393c-0.09712,-0.00868 -1.18932,-0.03946 -1.18932,-0.03946l0.53268,1.98794l-2.25157,0.37958l-0.96948,-2.75356l-1.3921,-0.17277l-1.43436,2.31059l-2.27019,-0.70859l1.07471,-1.98905c0,0 -1.80779,-0.1894 -1.83417,-0.20023z" fill="#00b9ff" stroke="#000000" stroke-linecap="butt"/><path d="M323.44686,204.41739l0.06881,-0.5399l0.23589,0.03006l-0.06881,0.5399z" fill="#005b9a" stroke="none" stroke-linecap="butt"/><path d="M322.69756,204.3219l0.06881,-0.5399l0.23589,0.03006l-0.06881,0.5399z" fill="#005b9a" stroke="none" stroke-linecap="butt"/><path d="M322.60659,204.62994c-0.10041,-0.09 -0.09999,-0.26449 0.01705,-0.35508c0.11839,-0.09162 0.45523,0.03817 0.39449,0.18468c0.0024,0.01894 0.00246,0.0385 -0.00006,0.05832c-0.01611,0.12645 -0.13169,0.21589 -0.25813,0.19978c-0.03458,0.02036 -0.07288,-0.0095 -0.10765,-0.04303c-0.01625,-0.01567 -0.03173,-0.03214 -0.0457,-0.04466z" fill="#ffcc00" stroke="none" stroke-linecap="butt"/><path d="M323.38364,204.72897c-0.10041,-0.09 -0.09999,-0.26449 0.01705,-0.35508c0.11839,-0.09162 0.45523,0.03817 0.39449,0.18468c0.0024,0.01894 0.00246,0.0385 -0.00006,0.05832c-0.01611,0.12645 -0.13168,0.21589 -0.25813,0.19978c-0.03458,0.02036 -0.07288,-0.0095 -0.10765,-0.04303c-0.01625,-0.01567 -0.03173,-0.03214 -0.0457,-0.04466z" fill="#ffcc00" stroke="none" stroke-linecap="butt"/><g stroke="#000000" stroke-linecap="butt"><path d="M316.66654,209.69811c0.14445,-0.33423 0.28888,-0.66848 0.43331,-1.00272c0.10406,0.04275 0.20828,0.08517 0.31269,0.1273c0.36463,0.14714 0.72968,0.2932 1.09491,0.43884c0.02254,0.00899 0.04509,0.01798 0.06763,0.02697c-0.04969,0.108 -0.09964,0.21589 -0.14961,0.32383c-0.10512,0.22706 -0.21763,0.45039 -0.33179,0.67294c-0.49919,-0.20387 -1.04863,-0.42921 -1.42712,-0.58716z" fill="#00b9ff"/><path d="M317.50747,207.74027c0.36799,0.15633 0.95278,0.40379 1.47843,0.62605c-0.02481,0.05741 -0.04962,0.11482 -0.07443,0.17222c-0.10131,0.23442 -0.20642,0.46692 -0.31292,0.69886c-0.02344,-0.00934 -0.04687,-0.01869 -0.07031,-0.02804c-0.36516,-0.14561 -0.73013,-0.29164 -1.09469,-0.43875c-0.10398,-0.04196 -0.20779,-0.08421 -0.31143,-0.12679c0.12981,-0.30064 0.25814,-0.60183 0.38534,-0.90355z" fill="#005b9a"/><path d="M319.29979,210.77627c0,0 -0.53115,-0.21542 -1.15394,-0.46969c0.11375,-0.22179 0.22582,-0.44438 0.33058,-0.67066c0.0504,-0.10886 0.10077,-0.21768 0.15088,-0.3266c0.32524,0.12969 0.65047,0.25938 0.97571,0.38907c0.04875,0.01944 0.09739,0.0392 0.14594,0.05921z" fill="#005b9a"/><path d="M320.14623,208.85664l-0.3746,0.84956c-0.04916,-0.02028 -0.09842,-0.04029 -0.1478,-0.05998c-0.32434,-0.12933 -0.64869,-0.25867 -0.97303,-0.388c0.10626,-0.23146 0.21114,-0.46347 0.31223,-0.6974c0.02487,-0.05754 0.04974,-0.11509 0.07461,-0.17263c0.59937,0.25341 1.10859,0.46845 1.10859,0.46845z" fill="#00b9ff"/><path d="M315.67477,208.11139c0.00284,-0.00656 0.00574,-0.01308 0.0087,-0.01955c0.21331,0.09219 0.42663,0.18438 0.63994,0.27657c0.24076,0.10405 0.48219,0.20574 0.72448,0.3056c-0.14438,0.33415 -0.28878,0.6683 -0.43319,1.00244c-0.11512,-0.04816 -0.21192,-0.08909 -0.28327,-0.11993c-0.59623,-0.25768 -0.89023,-0.90469 -0.65666,-1.44513z" fill="#005b9a"/><path d="M317.17726,207.59939c0.05052,0.02183 0.14825,0.06353 0.27851,0.11891c-0.12729,0.30192 -0.25571,0.60331 -0.3856,0.90414c-0.2423,-0.09985 -0.48372,-0.20153 -0.72448,-0.30559c-0.21245,-0.09182 -0.42489,-0.18363 -0.63734,-0.27545c0.25944,-0.48982 0.89909,-0.68828 1.46891,-0.44202z" fill="#00b9ff"/></g><g data-paper-data="{&quot;index&quot;:null}" stroke="#000000" stroke-linecap="butt"><path d="M327.20507,211.36983c-0.06908,-0.2404 -0.13638,-0.48125 -0.19571,-0.72432c-0.0282,-0.11555 -0.0564,-0.23106 -0.08432,-0.34662c0.02385,-0.00447 0.04771,-0.00894 0.07156,-0.01341c0.38647,-0.07243 0.77284,-0.14531 1.15901,-0.21933c0.11057,-0.02119 0.22102,-0.04271 0.33138,-0.06458c0.07722,0.35583 0.15445,0.71166 0.23169,1.06749c-0.40185,0.08195 -0.98446,0.19704 -1.5136,0.30076z" fill="#00b9ff"/><path d="M328.47508,209.94668c-0.10991,0.02178 -0.21991,0.0432 -0.33004,0.06431c-0.38609,0.07401 -0.77239,0.14687 -1.15878,0.21929c-0.0248,0.00465 -0.0496,0.00929 -0.0744,0.01394c-0.05974,-0.24813 -0.11801,-0.49654 -0.17219,-0.7461c-0.01327,-0.06112 -0.02653,-0.12223 -0.0398,-0.18335c0.55866,-0.11665 1.18021,-0.24662 1.57145,-0.32901c0.0666,0.3206 0.1344,0.64089 0.20376,0.96093z" fill="#005b9a"/><path d="M325.6827,210.53269c0.05149,-0.01027 0.10303,-0.02027 0.15462,-0.02994c0.34415,-0.0645 0.6883,-0.12899 1.03245,-0.19349c0.02815,0.11654 0.05659,0.23304 0.08503,0.34957c0.05912,0.24224 0.12614,0.48226 0.19496,0.72184c-0.66016,0.12932 -1.22288,0.2382 -1.22288,0.2382z" fill="#005b9a"/><path d="M326.64489,209.32625c0.0133,0.06126 0.0266,0.12252 0.0399,0.18379c0.05406,0.24904 0.1122,0.49693 0.1718,0.74455c-0.3432,0.06432 -0.68641,0.12864 -1.02961,0.19296c-0.05225,0.00979 -0.10444,0.01993 -0.1566,0.03033l-0.20364,-0.90588c0,0 0.54114,-0.11274 1.17815,-0.24574z" fill="#00b9ff"/><path d="M329.0748,210.99481c-0.07597,0.01649 -0.17884,0.03797 -0.30109,0.06302c-0.07722,-0.35573 -0.15443,-0.71146 -0.23163,-1.06719c0.25701,-0.05123 0.51352,-0.10442 0.76983,-0.16006c0.22709,-0.0493 0.45419,-0.0986 0.68128,-0.14789c0.00166,0.00692 0.00325,0.01387 0.00477,0.02086c0.1249,0.57536 -0.28841,1.15348 -0.92316,1.29127z" fill="#005b9a"/><path d="M329.97851,209.62839c-0.22617,0.0491 -0.45234,0.0982 -0.67851,0.14729c-0.25632,0.05564 -0.51282,0.10883 -0.76983,0.16005c-0.06941,-0.32025 -0.13726,-0.64074 -0.2039,-0.96155c0.1385,-0.0292 0.24243,-0.05126 0.29622,-0.06293c0.60663,-0.13169 1.19597,0.18646 1.35602,0.71714z" fill="#00b9ff"/></g></g><g data-paper-data="{&quot;index&quot;:null}" stroke-width="0.375"><path d="M336.51615,211.75676l1.34112,-3.89326l1.6485,0.56786l-1.34112,3.89326z" fill="#ffca68" stroke="#000000" stroke-linecap="butt"/><path d="M345.15663,211.25475l-1.6143,-3.78815l1.60399,-0.68353l1.6143,3.78815z" data-paper-data="{&quot;index&quot;:null}" fill="#ffca68" stroke="#000000" stroke-linecap="butt"/><path d="M333.04494,204.28337c-0.3928,-0.27913 -0.52204,-0.71255 -0.3542,-1.21664c0.37902,-0.7986 0.84834,-1.98499 1.78524,-3.07752c1.25434,-1.46271 1.69618,-1.07484 1.92104,-0.91505c0.19335,0.1374 -0.55017,1.10822 -1.087,2.25625c-0.5538,1.18432 -0.90669,2.54771 -1.04843,2.74717c-0.27913,0.3928 -0.82384,0.48494 -1.21664,0.20581z" data-paper-data="{&quot;index&quot;:null}" fill="#ffca68" stroke="#000000" stroke-linecap="butt"/><path d="M350.06204,204.35757c-0.3928,0.27913 -0.93751,0.18699 -1.21664,-0.20581c-0.14174,-0.19945 -0.49463,-1.56284 -1.04843,-2.74717c-0.53683,-1.14803 -1.28035,-2.11885 -1.087,-2.25624c0.22485,-0.15978 0.6667,-0.54765 1.92103,0.91505c0.93689,1.09254 1.40621,2.27892 1.78524,3.07752c0.16784,0.50409 0.0386,0.93751 -0.3542,1.21664z" fill="#ffca68" stroke="#000000" stroke-linecap="butt"/><path d="M349.09283,194.84916c-0.0145,0.43001 -0.45901,0.98801 -0.88901,0.97351c-0.02649,-0.00089 -0.31249,-0.17061 -0.45253,-0.43878c-0.10332,-0.19785 -0.04267,-0.5169 -0.17516,-0.51293c-2.22983,0.06683 -10.3422,1.31971 -12.55915,1.01744c-0.37118,-0.05061 -0.56896,-0.51146 -0.5671,-0.56653c0.00109,-0.03228 -0.37481,-1.4999 -0.30374,-2.06717c0.09659,-0.77095 0.76919,-1.03328 1.13915,-1.08411c2.98413,-0.40995 10.60168,-0.23392 11.33182,-0.18983c0.46488,0.02807 2.1775,0.11875 2.32311,0.76473c0.14215,0.6306 0.15353,2.07632 0.15261,2.10365z" fill="#ad7000" stroke="#000000" stroke-linecap="butt"/><path d="M335.50555,205.44861v-12.20181h12.15039v12.20181z" fill="#ffca68" stroke="#000000" stroke-linecap="butt"/><path d="M335.50555,205.44861v-4.20896l-0.20716,0.05695l-1.35092,-0.53921c0,0 0.36347,-0.71736 0.62052,-0.98377c0.23573,-0.24432 0.86336,-0.59129 0.86336,-0.59129l3.42034,0.0371c-0.00162,0.02452 0.04235,0.53505 0.25255,0.81787c0.16746,0.22529 0.55191,0.36924 0.80323,0.36924c0.61465,0 0.89412,-0.49827 0.89412,-1.11291c0,-0.02493 0.02653,-0.04967 0.02492,-0.0742l6.90361,0.0371c0,0 0.56604,0.41765 0.81123,0.66284c0.27149,0.27149 0.67266,0.85814 0.67266,0.85814l-1.55808,0.40807v4.26304z" fill="#ff0000" stroke="#000000" stroke-linecap="butt"/><path d="M340.76333,196.66684c-0.47123,0 -0.85323,-0.382 -0.85323,-0.85323c0,-0.47123 0.382,-0.85324 0.85323,-0.85324c0.47123,0 0.85323,0.38201 0.85323,0.85324c0,0.47123 -0.382,0.85323 -0.85323,0.85323z" fill="#ffffff" stroke="#000000" stroke-linecap="butt"/><path d="M338.80337,196.65688c-0.47123,0 -0.85323,-0.382 -0.85323,-0.85323c0,-0.47123 0.382,-0.85323 0.85323,-0.85323c0.47123,0 0.85323,0.382 0.85323,0.85323c0,0.47123 -0.382,0.85323 -0.85323,0.85323z" fill="#ffffff" stroke="#000000" stroke-linecap="butt"/><path d="M340.42468,196.12715c-0.15366,0 -0.27823,-0.12457 -0.27823,-0.27823c0,-0.15366 0.12457,-0.27823 0.27823,-0.27823c0.15366,0 0.27823,0.12457 0.27823,0.27823c0,0.15366 -0.12457,0.27823 -0.27823,0.27823z" fill="#000000" stroke="none" stroke-linecap="butt"/><path d="M338.42929,196.12777c-0.15366,0 -0.27823,-0.12457 -0.27823,-0.27823c0,-0.15366 0.12457,-0.27823 0.27823,-0.27823c0.15366,0 0.27823,0.12457 0.27823,0.27823c0,0.15366 -0.12457,0.27823 -0.27823,0.27823z" fill="#000000" stroke="none" stroke-linecap="butt"/><path d="M340.82835,197.66569c0,0 -0.38891,0.34375 -0.96518,0.33631c-0.46652,-0.00602 -0.94796,-0.37768 -0.94796,-0.37768" fill="none" stroke="#000000" stroke-linecap="round"/><path d="M339.32872,200.79449l0.67541,1.70323l1.33473,-0.06468l-1.04527,0.6468l0.69149,1.72479l-1.54378,-1.18579l-1.5277,1.03487l0.64324,-1.70323l-0.94878,-0.58212l1.12567,0.04312z" fill="#df67ff" stroke="#000000" stroke-linecap="round"/><path d="M346.82631,206.50235c-0.02728,0.00734 -1.66624,-0.0339 -1.66624,-0.0339l0.64562,1.53395l-1.94221,1.01714l-1.29941,-2.34883l-2.20304,-0.04166l-0.71806,2.33567l-2.5141,-0.5972l0.42743,-1.91741c0,0 -0.34838,0.00187 -0.44492,-0.00177c-1.89206,-0.07131 -1.65589,-1.27365 -1.65589,-1.27365l12.12245,-0.00809c0,0 0.29851,1.05303 -0.75164,1.33574z" fill="#00b9ff" stroke="#000000" stroke-linecap="butt"/><path d="M339.67388,205.97086v-0.53923h0.2356v0.53923z" fill="#005b9a" stroke="none" stroke-linecap="butt"/><path d="M340.75044,206.02555v-0.53923h0.2356v0.53923z" fill="#005b9a" stroke="none" stroke-linecap="butt"/><path d="M340.95901,206.35052c-0.03837,0.0286 -0.07976,0.05314 -0.11119,0.0288c-0.12629,0 -0.22867,-0.10238 -0.22867,-0.22867c0,-0.01979 0.00251,-0.03901 0.00724,-0.05732c-0.04134,-0.15159 0.30597,-0.23696 0.41084,-0.13209c0.10369,0.10369 0.08224,0.27523 -0.02772,0.35111c-0.0153,0.01056 -0.03257,0.02481 -0.05051,0.03817z" fill="#ffcc00" stroke="none" stroke-linecap="butt"/><path d="M339.90943,206.29582c-0.03837,0.0286 -0.07976,0.05314 -0.11119,0.0288c-0.12629,0 -0.22867,-0.10238 -0.22867,-0.22867c0,-0.01979 0.00251,-0.03901 0.00724,-0.05732c-0.04134,-0.15159 0.30597,-0.23696 0.41084,-0.13209c0.10369,0.10369 0.08224,0.27523 -0.02772,0.35111c-0.0153,0.01056 -0.03257,0.02481 -0.05051,0.03817z" fill="#ffcc00" stroke="none" stroke-linecap="butt"/><g data-paper-data="{&quot;index&quot;:null}" stroke="#000000" stroke-linecap="butt"><path d="M344.16447,211.65899c0.10173,-0.04555 0.20333,-0.09144 0.30485,-0.13765c0.35455,-0.16141 0.7086,-0.32386 1.06249,-0.48673c0.02184,-0.01005 0.04368,-0.02011 0.06552,-0.03016c0.04364,0.1094 0.08702,0.21892 0.13043,0.32848c0.0913,0.23047 0.17489,0.46371 0.25679,0.6976c-0.48714,0.21932 -1.02399,0.46007 -1.39577,0.62406c-0.14142,-0.33187 -0.28286,-0.66373 -0.42431,-0.99559z" fill="#00b9ff"/><path d="M343.75681,210.71434c0.36344,-0.15755 0.94031,-0.4086 1.45871,-0.63437c0.02429,0.057 0.04858,0.114 0.07287,0.171c0.09919,0.23277 0.1944,0.46694 0.28828,0.70172c-0.02271,0.01045 -0.04542,0.02091 -0.06813,0.03136c-0.35381,0.16284 -0.7078,0.32526 -1.06227,0.48664c-0.10111,0.04603 -0.2023,0.09174 -0.30362,0.1371c-0.12729,-0.29842 -0.25599,-0.59616 -0.38583,-0.89346z" fill="#005b9a"/><path d="M347.1604,211.49951c0,0 -0.51724,0.23439 -1.12493,0.50808c-0.08163,-0.23307 -0.16498,-0.46549 -0.25597,-0.69516c-0.04377,-0.1105 -0.08754,-0.22095 -0.13155,-0.33128c0.31513,-0.14503 0.63026,-0.29007 0.94538,-0.43511c0.04724,-0.02174 0.09463,-0.04318 0.14213,-0.06438z" fill="#005b9a"/><path d="M345.26654,210.05774c0.59109,-0.25745 1.09309,-0.47635 1.09309,-0.47635l0.35439,0.84889c-0.04812,0.02146 -0.09611,0.04318 -0.14396,0.0652c-0.31426,0.14464 -0.62852,0.28928 -0.94278,0.43391c-0.09369,-0.23429 -0.18871,-0.46797 -0.2877,-0.70025c-0.02435,-0.05714 -0.0487,-0.11428 -0.07305,-0.17141z" fill="#00b9ff"/><path d="M342.77238,212.28374c-0.00278,-0.00652 -0.00547,-0.01304 -0.0081,-0.01959c0.2118,-0.09026 0.42361,-0.18052 0.63541,-0.27078c0.23906,-0.10188 0.47687,-0.20583 0.71396,-0.31167c0.14141,0.33176 0.2828,0.66353 0.42419,0.99531c-0.11316,0.0498 -0.20862,0.09137 -0.27947,0.12156c-0.59201,0.25228 -1.25732,0.02178 -1.486,-0.51484z" fill="#005b9a"/><path d="M342.74505,212.21187c-0.17467,-0.52065 0.11942,-1.11545 0.68521,-1.35656c0.05017,-0.02138 0.14681,-0.0631 0.27549,-0.11884c0.12993,0.29749 0.25871,0.59542 0.38608,0.89404c-0.23709,0.10584 -0.47489,0.2098 -0.71395,0.31168c-0.21094,0.08989 -0.42189,0.17979 -0.63283,0.26968z" fill="#00b9ff"/></g><g data-paper-data="{&quot;index&quot;:null}" stroke="#000000" stroke-linecap="butt"><path d="M336.79914,212.45207c-0.50851,-0.16376 -1.06829,-0.34492 -1.45411,-0.47242c0.11749,-0.34108 0.23497,-0.68216 0.35244,-1.02325c0.10602,0.03439 0.21218,0.06844 0.3185,0.10218c0.37131,0.11786 0.74294,0.23462 1.11473,0.35094c0.02295,0.00718 0.04589,0.01436 0.06884,0.02154c-0.04095,0.11044 -0.08215,0.2208 -0.12337,0.33119c-0.08671,0.23224 -0.18102,0.46134 -0.27702,0.6898z" fill="#00b9ff"/><path d="M335.71558,210.90379c0.10556,-0.30678 0.20962,-0.614 0.31253,-0.92166c0.37531,0.12668 0.97169,0.32705 1.50773,0.50696c-0.02018,0.05858 -0.04036,0.11717 -0.06054,0.17575c-0.08241,0.23922 -0.16871,0.47683 -0.25642,0.71399c-0.02386,-0.00747 -0.04771,-0.01493 -0.07158,-0.0224c-0.37172,-0.1163 -0.74328,-0.23304 -1.11451,-0.35088c-0.10589,-0.03361 -0.21162,-0.06752 -0.31721,-0.10176z" fill="#005b9a"/><path d="M338.02767,212.84616c0,0 -0.54095,-0.17275 -1.17538,-0.37697c0.09564,-0.22768 0.18957,-0.45603 0.27599,-0.68746c0.04157,-0.11134 0.08314,-0.22264 0.12442,-0.33402c0.33108,0.10359 0.66215,0.20718 0.99322,0.31077c0.04963,0.01553 0.09917,0.03138 0.14863,0.04749z" fill="#005b9a"/><path d="M338.71908,210.88596l-0.30599,0.86751c-0.0501,-0.01632 -0.10027,-0.03238 -0.15053,-0.0481c-0.33017,-0.10331 -0.66033,-0.20661 -0.99049,-0.30991c0.08752,-0.23667 0.17362,-0.47378 0.25586,-0.7125c0.02023,-0.05872 0.04045,-0.11744 0.06068,-0.17617c0.61122,0.20514 1.13048,0.37916 1.13048,0.37916z" fill="#00b9ff"/><path d="M335.00331,211.86506c-0.60844,-0.20959 -0.94767,-0.82659 -0.75769,-1.3781c0.00231,-0.00669 0.00468,-0.01335 0.00712,-0.01997c0.21768,0.07498 0.43536,0.14997 0.65304,0.22495c0.24569,0.08464 0.49186,0.16689 0.73875,0.24726c-0.11743,0.34099 -0.23488,0.68198 -0.35234,1.02296c-0.11736,-0.03889 -0.21607,-0.07203 -0.28888,-0.09711z" fill="#005b9a"/><path d="M334.27352,210.4153c0.21935,-0.50345 0.83629,-0.74774 1.41777,-0.54744c0.05156,0.01776 0.15124,0.05158 0.28411,0.09646c-0.10298,0.30786 -0.2071,0.61528 -0.31274,0.92226c-0.24689,-0.08037 -0.49305,-0.16261 -0.73874,-0.24725c-0.2168,-0.07468 -0.4336,-0.14936 -0.65039,-0.22404z" fill="#00b9ff"/></g></g><path d="M201.17701,199.7485c0.03267,0.00861 0.06542,0.01748 0.09823,0.0266c1.34161,0.37302 2.07625,1.89121 2.87096,3.03468c2.05788,2.96098 2.36717,6.85776 1.51181,10.26573c-0.65837,2.6231 -1.64627,6.79916 -5.58744,6.74807c-3.48931,-0.04523 -4.78125,-2.36482 -5.19118,-4.90426c-0.95537,-0.9948 -1.69741,-2.15474 -2.03713,-3.22169c-0.42184,-1.32485 -0.21052,-2.7728 -0.31577,-4.1592c0.28008,-1.23272 0.25863,-2.57577 0.84025,-3.69816c0.69633,-1.34376 1.65919,-2.53088 2.85399,-3.31865c-0.03443,-0.57576 -0.06871,-1.15099 -0.10114,-1.72604c-1.31462,-0.3443 -2.54094,-1.36734 -3.46257,-3.32065c-0.55491,-1.17607 0.04913,-2.60037 0.06395,-3.90069c0.03689,-3.23738 0.3419,-6.17329 1.90225,-9.11095c1.4165,-2.66685 2.71588,-3.77301 2.90186,-6.97143c0.17188,-2.95612 0.18838,-6.13266 -0.0012,-9.08813c-0.05577,-0.86941 -0.23009,-1.73224 -0.42001,-2.59302c-2.67545,-0.40922 -4.88842,-2.15825 -5.37706,-5.76349c-0.19612,-1.44698 0.65236,-2.89572 1.39656,-4.15207c1.5843,-2.67461 2.91745,-2.68428 5.50566,-3.60942c0,0 0.80087,-0.26696 1.62697,-0.02523c3.19398,-1.49966 7.17493,-1.13402 8.6985,2.7035c0.02896,0.07294 0.05483,0.14657 0.07778,0.22082c4.18704,-1.32685 7.81998,-1.49885 12.55838,-0.03109c1.03285,0.61468 2.32336,0.92551 3.09856,1.84403c2.35656,2.79226 3.24734,7.19365 3.29038,11.17041c1.60898,-0.57892 3.23643,-1.46673 4.77907,-0.93616c1.86583,0.64173 2.43666,6.06879 2.71779,7.56302c0.78512,4.17297 3.44323,14.58225 -2.918,16.25073c-0.32878,0.08624 -0.64719,0.14955 -0.95552,0.19151c-0.15666,1.09718 -0.29328,2.19724 -0.39074,3.30342c0.85794,0.12794 1.69438,0.29843 2.35393,0.81918c5.70444,4.50395 0.62562,13.71761 -4.73587,15.65085c-1.44271,0.52021 -3.13415,1.19683 -4.55797,0.62696c-0.38647,-0.15468 -0.76969,-0.45645 -1.13549,-0.86108c-3.47278,-2.02184 -3.99,-8.21832 -1.66967,-11.92404c1.8304,-2.92328 2.79646,-3.49289 4.69955,-3.92999c0.12615,-1.73033 0.35258,-3.44342 0.61139,-5.15184c-1.60895,-1.43879 -2.64362,-3.68124 -3.29141,-5.79114c-0.57958,-1.11509 -0.83215,-2.3478 -0.84917,-3.63011c-0.32434,-1.95563 -0.44679,-3.96376 -0.31061,-5.88266c0.25063,-3.53159 1.23933,-5.98936 0.11198,-9.44643c-0.70302,-2.15587 -0.60235,-4.32455 -2.79033,-5.25924c-4.5299,-1.38093 -7.53045,-0.56023 -11.8839,1.2108c-0.04535,0.01845 -0.09165,0.03578 -0.13879,0.05211c-0.74964,1.18371 -1.83564,2.21012 -3.09423,3.01221c0.05819,0.93109 0.04881,1.86815 -0.0183,2.79841c-0.40342,5.59178 -1.79872,11.07272 -1.99555,16.71872c-0.04103,1.177 0.19107,2.82279 0.35872,4.49217c0.34178,0.16792 0.6517,0.38422 0.91363,0.67336c1.02671,1.13336 0.81554,3.00965 0.69795,4.53438c-0.17717,2.29738 -1.59229,4.6546 -3.44402,6.14027c0.03919,0.78518 0.0849,1.57008 0.13299,2.35494z" fill="#003274" stroke="none" stroke-width="0.5" stroke-linecap="butt"/><path d="M153.25985,191.59427c0.19861,-0.39546 0.42055,-0.763 0.67119,-1.09298c-0.32392,-0.39076 -0.60568,-0.79388 -0.83608,-1.19942c-0.58302,-1.02622 -0.4988,-2.30738 -0.7692,-3.45626c-1.25995,-5.35337 -2.53384,-11.02189 -2.55619,-16.52706c0,0 0,-2.5 2.5,-2.5c0.1137,0 0.22223,0.00517 0.32582,0.01504c0.43008,-0.75554 1.24263,-1.26504 2.17418,-1.26504c0.67668,0 1.29057,0.26885 1.74069,0.70556c0.91311,0.29874 1.83771,0.81842 2.74653,1.03492c1.62536,2.23904 3.28461,4.67102 4.63052,7.24284c0.07032,-0.12904 0.13902,-0.25885 0.20619,-0.3894c-0.35847,-0.43268 -0.57393,-0.98814 -0.57393,-1.59392v-3.5h0.02828c-0.00863,-0.04145 -0.01703,-0.08296 -0.02518,-0.12453c-0.88148,-4.49462 4.94457,-11.22439 9.81528,-8.88568c2.47141,1.18667 3.43915,4.83825 3.16927,7.25834c-0.46405,4.16144 -3.90985,9.22009 -7.34418,11.5775c-0.94217,0.64673 -1.97538,1.21111 -2.85609,1.93515c0.36881,1.58529 0.54427,3.20302 0.46046,4.84312c-0.13168,2.57675 -0.22488,6.10589 -2.88344,7.74096c-0.66005,0.40594 -1.36753,0.64118 -2.09518,0.73518c-0.2529,5.36715 -3.94658,11.48304 -6.68603,15.63544c-1.80546,2.73668 -6.06639,7.17239 -10.00584,5.44137c-1.65638,-0.72782 -2.74649,-2.69331 -3.0753,-4.47241c-0.23833,-1.28951 0.98912,-2.43234 1.58309,-3.60145c0.836,-1.6455 2.06272,-3.06151 3.06729,-4.60987c2.13521,-3.29104 3.26768,-6.98839 5.59757,-10.13978c0,0 0.37111,-0.49482 0.99028,-0.80762z" fill="#003274" stroke="none" stroke-width="0.5" stroke-linecap="butt"/><path d="M315.28172,193.66496h15.20452" fill="none" stroke="#cf8126" stroke-width="4" stroke-linecap="round"/><path d="M255.46946,171.29666c-0.99551,-0.93673 -0.62525,-2.41778 -0.62525,-2.41778l0.48996,-1.60777c1.63451,-2.93683 3.21496,-7.31313 5.55586,-9.68433c0.99308,-1.00593 1.97571,-2.46323 3.38644,-2.55246c1.95229,-0.12347 4.256,0.49715 5.5212,1.98911c1.0988,1.29573 0.42732,3.37668 0.46932,5.07506c0.07762,3.13829 -0.65368,8.9146 -1.91503,11.78665c-0.69375,1.57963 -1.86665,2.90203 -2.79997,4.35304c-1.0377,0.69062 -1.93884,1.65365 -3.11309,2.07184c-2.86989,1.02208 -7.01714,1.33904 -8.53403,-2.51348c-0.58382,-1.48277 0.58614,-3.13708 1.01722,-4.67123c0.17192,-0.61181 0.35257,-1.2227 0.54736,-1.82867z" fill="#003274" stroke="none" stroke-width="0.5" stroke-linecap="butt"/><path d="M286.21289,223.013v-59" fill="none" stroke="#a85a00" stroke-width="4" stroke-linecap="round"/><path d="M301.87955,164.34632v59" fill="none" stroke="#a85a00" stroke-width="4" stroke-linecap="round"/><path d="M187.73041,224.32474v-76.67187h19.40625c6.69792,0 11.90625,0.83854 15.625,2.51563c3.71875,1.66666 6.33334,4.28646 7.84375,7.85938c1.52084,3.5625 2.28125,8.18229 2.28125,13.85938v0.15153c-0.72439,-1.71574 -1.48748,-3.13651 -2.04431,-3.77287c-0.20951,-0.23944 -0.85217,-0.93026 -1.57863,-1.45144c-0.68859,-0.49402 -1.45248,-0.83562 -1.99415,-0.49593c-2.34721,0 -4.25,1.90279 -4.25,4.25c0,0.07918 0.00217,0.15785 0.00644,0.23596c-0.32392,0.64783 1.53591,3.8721 1.96188,4.75332c1.73022,3.57934 2.75245,11.8179 7.89876,8.25418v15.90339c0,5.73959 -0.76041,10.42709 -2.28125,14.0625c-1.51041,3.625 -4.10937,6.29166 -7.79687,8c-3.6875,1.69791 -8.84896,2.54688 -15.48437,2.54688zM204.68353,212.59036h2.64063c2.59375,0 4.45833,-0.38021 5.59375,-1.14062c1.13541,-0.76041 1.84375,-1.89584 2.125,-3.40625c0.28125,-1.51041 0.42188,-3.40104 0.42188,-5.67187v-33.42187c0,-2.27084 -0.17187,-4.09896 -0.51562,-5.48437c-0.34375,-1.39584 -1.08334,-2.40625 -2.21875,-3.03125c-1.13541,-0.63541 -2.96875,-0.95312 -5.5,-0.95312h-2.54687zM203.93229,216.0589c1.01072,-0.57755 0.56361,-4.01993 0.48462,-4.81769c-0.34314,-3.46537 -0.41613,-11.15293 -6.17811,-9.71244c-1.38506,0.34627 -2.35779,1.73925 -3.09233,2.96348c-0.11846,0.19743 0.47743,5.31661 0.93701,8.67131c-0.042,0.23979 -0.0639,0.48649 -0.0639,0.73831c0,0.71412 0.17613,1.3871 0.48731,1.97787c0.0176,0.07649 0.03238,0.12659 0.04394,0.14713c0.09262,0.16466 0.20414,0.31055 0.33081,0.44139c0.83057,0.85794 2.31239,1.06901 3.38794,1.68361zM194.88163,194.96827c0.7761,1.02295 2.00487,1.68361 3.38794,1.68361c1.55985,0 2.92342,-0.84033 3.66272,-2.09298c2.94923,-1.68527 -0.62242,-8.68313 -2.57922,-9.07449c-4.74401,-0.9488 -6.60343,5.84042 -4.80224,9.04247c0.09262,0.16466 0.20414,0.31055 0.33081,0.44139zM198.40681,152.6124c-2.05687,0.29702 -3.63724,2.06703 -3.63724,4.20615c0,2.24902 1.74692,4.09003 3.95787,4.24012c2.88044,1.92029 7.01635,-4.00714 6.32403,-6.08409c-1.3007,-3.90211 -4.22599,-3.805 -6.64467,-2.36218zM231.15751,198.50216c-0.7761,-1.02295 -2.00487,-1.68361 -3.38794,-1.68361c-1.55985,0 -2.92342,0.84033 -3.66272,2.09298c-3.24568,1.85468 1.67137,7.40702 3.66272,7.40702c3.88843,0 5.28196,-4.59601 3.71875,-7.375c-0.09262,-0.16466 -0.20414,-0.31055 -0.33081,-0.44139z" fill="#004cad" stroke="none" stroke-width="1" stroke-linecap="butt"/><path d="M133.16683,224.52474l14.875,-41.26562c0,0 -5.09291,-22.1327 -15.20312,-42.80625c-1.82565,-3.73311 -3.95566,-6.71394 -3.95566,-6.71394c0,0 3.19432,-0.54394 5.04079,0.07291c0.21527,0.07191 0.83756,0.94693 1.01857,1.04831c1.86771,1.04599 1.23808,2.98524 3.77977,4.99784c5.35077,4.23694 5.53408,3.80138 11.51653,11.59488c2.70455,3.52329 8.02187,17.13438 8.02187,17.13438l6.8125,-20.73437h14.10938l-5.56641,16.4859c-0.83256,-0.99075 -1.87114,-1.70296 -2.84647,-1.77022c-2.39325,-0.16505 -4.20031,2.41819 -4.61656,4.93925c-0.08712,0.33907 -0.13344,0.6945 -0.13344,1.06075c0,0.44275 0.0677,0.86968 0.19332,1.27101c0.07952,0.30629 0.19142,0.59353 0.33793,0.85399c0.09262,0.16466 0.20414,0.31055 0.33081,0.44139c0.7761,1.02295 2.00487,1.68361 3.38794,1.68361c0.1667,0 0.33116,-0.0096 0.49285,-0.02827l-5.03308,14.90635l14.96875,36.82813h-15.90625l-8.41095,-20.55075c0.54456,-1.6335 0.78167,-3.15002 0.58858,-4.1621c-0.03481,-0.18247 -0.09214,-0.3515 -0.16851,-0.50916c-0.56394,-1.68587 -2.15578,-2.90086 -4.03139,-2.90086c-1.13605,0 -2.168,0.44574 -2.93048,1.17188c-0.66592,0.63417 -1.1263,1.4822 -1.27102,2.43396c-1.02132,2.17731 -2.26048,5.04594 -2.61785,5.66254c-0.26406,0.45561 -0.8429,0.82893 -0.8128,1.35467c0.08161,1.42536 0.11742,3.12262 1.12695,4.13216c1.90955,1.90955 3.97124,1.4303 5.77469,-0.14233l-4.85659,13.51zM160.20886,171.72042c-0.47259,-1.16373 -1.44587,-2.07071 -2.65251,-2.45358c-2.64935,-1.9264 -5.41367,-2.21719 -5.53448,3.91058c-0.00153,0.04686 -0.0023,0.0939 -0.0023,0.14113c0,0.71382 0.17598,1.38653 0.48692,1.97713c1.74599,3.49199 2.86305,6.70204 3.01308,10.96255c0.04838,1.37392 0.03817,4.052 1.27021,4.87336c3.33397,2.22265 5.07042,1.87536 7.29307,-1.45861c0.60051,-0.90076 -1.56384,-14.54977 -1.76197,-15.00508c-0.28201,-0.64808 -1.07865,-1.79119 -2.11202,-2.94748z" fill="#004cad" stroke="none" stroke-width="1" stroke-linecap="butt"/><path d="M311.9193,200.32474v-52.67187h25.75c4.60416,0 8.39063,0.86979 11.35938,2.60938c2.96875,1.72916 5.17708,4.25 6.625,7.5625c1.45833,3.3125 2.1875,7.33854 2.1875,12.07813c0,5.92709 -0.97917,10.45313 -2.9375,13.57813c-1.95833,3.125 -4.60937,5.28646 -7.95312,6.48438c-3.34375,1.19791 -7.09896,1.79688 -11.26563,1.79688h-6.8125v8.5625zM328.87243,179.93411h5.67188c2.08334,0 3.66146,-0.38021 4.73438,-1.14062c1.07291,-0.76041 1.78125,-1.89584 2.125,-3.40625c0.35417,-1.51041 0.53125,-3.4375 0.53125,-5.78125c0,-1.94791 -0.14583,-3.66146 -0.4375,-5.14062c-0.28125,-1.48959 -0.95834,-2.67709 -2.03125,-3.5625c-1.07291,-0.88541 -2.74479,-1.32812 -5.01562,-1.32812h-5.57812z" fill="#004cad" stroke="none" stroke-width="1" stroke-linecap="butt"/><path d="M240.24628,223.85264l-0.83963,-10.18419l14.15192,-56.35335l-17.83013,1.46999l-0.94106,-11.41439l34.43007,-2.83857l0.78571,9.53016l-2.11854,8.40303c-0.6713,-1.46358 -2.14947,-2.48011 -3.86506,-2.48011c-0.85219,0 -1.6458,0.25082 -2.31104,0.68267c-0.63555,0.03531 -1.11981,0.68886 -1.49592,1.49381c-0.58113,0.94645 -1.03515,2.56828 -1.20619,3.29281c-0.01389,0.05883 -0.02811,0.11781 -0.04264,0.17691c-1.53595,3.83133 -3.48532,8.84448 0.96183,11.3857c1.77541,1.01452 3.49061,-0.27689 4.90148,-2.42419l-9.20219,36.49985l19.1382,-1.57784l0.94106,11.4144z" fill="#004cad" stroke="none" stroke-width="1" stroke-linecap="butt"/><path d="M283.53714,167.32474v-19.67187h16.9375v19.67188z" fill="#004cad" stroke="none" stroke-width="1" stroke-linecap="butt"/><path d="M316.9193,200.32474v-52.67187h25.75c4.60417,0 8.39063,0.86979 11.35938,2.60938c2.96875,1.72916 5.17708,4.25 6.625,7.5625c1.45833,3.3125 2.1875,7.33854 2.1875,12.07813c0,5.92709 -0.97917,10.45313 -2.9375,13.57813c-1.95833,3.125 -4.60937,5.28646 -7.95312,6.48438c-3.34375,1.19791 -7.09896,1.79688 -11.26562,1.79688h-6.8125v8.5625zM333.87243,179.93411h5.67188c2.08334,0 3.66146,-0.38021 4.73438,-1.14062c1.07292,-0.76041 1.78125,-1.89584 2.125,-3.40625c0.35417,-1.51041 0.53125,-3.4375 0.53125,-5.78125c0,-1.94791 -0.14583,-3.66146 -0.4375,-5.14062c-0.28125,-1.48959 -0.95833,-2.67709 -2.03125,-3.5625c-1.07292,-0.88541 -2.74479,-1.32812 -5.01563,-1.32812h-5.57812z" fill="#0096ff" stroke="none" stroke-width="1" stroke-linecap="butt"/><path d="M288.53714,167.32474v-19.67187h16.9375v19.67188z" fill="#0096ff" stroke="none" stroke-width="1" stroke-linecap="butt"/><path d="M303.68624,174.34632h-19.33333" fill="none" stroke="#cf8126" stroke-width="4" stroke-linecap="round"/><path d="M303.68624,183.013h-19.33333" fill="none" stroke="#cf8126" stroke-width="4" stroke-linecap="round"/><path d="M303.68624,191.34633h-19.33333" fill="none" stroke="#cf8126" stroke-width="4" stroke-linecap="round"/><path d="M303.68624,200.013h-19.33333" fill="none" stroke="#cf8126" stroke-width="4" stroke-linecap="round"/><path d="M303.3529,208.67967h-19.33333" fill="none" stroke="#cf8126" stroke-width="4" stroke-linecap="round"/><path d="M303.3529,217.34633h-19.33333" fill="none" stroke="#cf8126" stroke-width="4" stroke-linecap="round"/><g fill="none" stroke-width="2.5" stroke-linecap="round"><path d="M257.29956,178.96753l3.72432,-20.23329" stroke="#a85a00"/><path d="M268.0332,160.14261l-3.72432,20.23329" stroke="#a85a00"/><path d="M268.14253,164.10246l-8.67576,-1.59694" stroke="#cf8126"/><path d="M258.47814,167.87647l8.67576,1.59694" stroke="#cf8126"/><path d="M257.52755,173.04083l8.67576,1.59694" stroke="#cf8126"/></g><path d="M245.22939,223.44181l-0.83963,-10.1842l14.15192,-56.35335l-17.83012,1.47l-0.94106,-11.41439l34.43006,-2.83857l0.78571,9.53016l-14.37828,57.03049l19.1382,-1.57784l0.94106,11.4144zM259.00642,165.45451c0,0 -0.02811,0.11781 -0.04264,0.17691c-0.37182,0.92748 1.23212,2.4473 0.93828,3.36128c-0.65374,2.03339 -2.80163,3.43792 -1.05149,5.43389c0.57442,0.65511 0.09954,2.03311 1.07504,2.59053c0.93157,0.53232 1.58544,-1.04799 2.3519,-1.38253c2.90203,-1.26667 4.61855,-8.83696 4.61855,-8.83696l1.30545,-3.32413c0,0 -1.69474,-4.28829 -3.78193,-4.28829c-0.85219,0 -2.71104,1.48267 -2.71104,1.48267c0,0 -1.11981,0.68886 -1.49592,1.49381c-0.58113,0.94645 -1.20619,3.29281 -1.20619,3.29281z" fill="#0096ff" stroke="none" stroke-width="1" stroke-linecap="butt"/><g fill="none" stroke-width="1.5" stroke-linecap="round"><path d="M169.69018,160.73424l-2.39062,12.98764" stroke="#a85a00"/><path d="M174.18942,161.63827l-2.39062,12.98764" stroke="#a85a00"/><path d="M168.69068,163.15501l5.56892,1.02507" stroke="#cf8126"/><path d="M168.05607,166.60259l5.56892,1.02507" stroke="#cf8126"/><path d="M173.01481,170.94263l-5.56892,-1.02507" stroke="#cf8126"/></g><g fill="none" stroke-width="2.5" stroke-linecap="round"><path d="M151.19381,165.83681l8.66091,27.86268" stroke="#a85a00"/><path d="M165.42122,192.14181l-8.66091,-27.86268" stroke="#a85a00"/><path d="M158.86456,168.80384l-6.80892,2.1165" stroke="#cf8126"/><path d="M153.32786,175.01314l6.80892,-2.1165" stroke="#cf8126"/><path d="M154.55115,178.94857l6.80892,-2.1165" stroke="#cf8126"/><path d="M162.6323,180.92489l-6.80892,2.1165" stroke="#cf8126"/><path d="M163.78713,185.05421l-6.80892,2.1165" stroke="#cf8126"/><path d="M158.25042,191.26353l6.80892,-2.1165" stroke="#cf8126"/></g><g data-paper-data="{&quot;index&quot;:null}" fill="none" stroke-width="2.5" stroke-linecap="round"><path d="M148.42253,222.36616l9.69126,-27.86268" stroke="#a85a00"/><path d="M142.19381,220.80848l9.69126,-27.86268" stroke="#a85a00"/><path d="M157.14942,199.587l-7.61894,-2.1165" stroke="#cf8126"/><path d="M155.72587,203.67983l-7.61895,-2.1165" stroke="#cf8126"/><path d="M154.35704,207.61524l-7.61894,-2.1165" stroke="#cf8126"/><path d="M152.93347,211.70806l-7.61895,-2.1165" stroke="#cf8126"/><path d="M144.02231,213.72088l7.61894,2.1165" stroke="#cf8126"/><path d="M142.59873,217.8137l7.61895,2.1165" stroke="#cf8126"/></g><path d="M138.16683,224.52474l14.875,-41.26562c0,0 -5.09291,-22.1327 -15.20312,-42.80625c-1.82565,-3.73311 -3.95566,-6.71394 -3.95566,-6.71394c0,0 4.93812,2.23826 9.83913,6.11906c5.35077,4.23694 5.53408,3.80138 11.51653,11.59488c2.70455,3.52329 8.02187,17.13438 8.02187,17.13438l6.8125,-20.73437h14.10938l-13.45312,39.84375l14.96875,36.82813h-15.90625l-9.375,-22.90625l-8.23437,22.90625zM160.20886,171.72042c-0.47259,-1.16373 -1.44587,-2.07071 -2.65251,-2.45358c-2.64935,-1.9264 -5.41367,-2.21719 -5.53448,3.91058c-0.00153,0.04686 -0.0023,0.0939 -0.0023,0.14113c0,0.71382 0.17598,1.38653 0.48692,1.97713c1.74599,3.49199 2.86305,6.70204 3.01308,10.96255c0.04838,1.37392 0.03817,4.052 1.27021,4.87336c3.33397,2.22265 5.07042,1.87536 7.29307,-1.45861c0.60051,-0.90076 -1.56384,-14.54977 -1.76197,-15.00508c-0.28201,-0.64808 -1.07865,-1.79119 -2.11202,-2.94748zM156.80096,199.30275c-0.56394,-1.68587 -2.15578,-2.90086 -4.03139,-2.90086c-1.13605,0 -2.168,0.44574 -2.93048,1.17188c-0.66592,0.63417 -1.1263,1.4822 -1.27102,2.43396c-1.02132,2.17731 -2.26048,5.04594 -2.61785,5.66254c-0.26406,0.45561 -0.8429,0.82893 -0.8128,1.35467c0.08161,1.42536 0.11742,3.12262 1.12695,4.13216c5.18385,5.18385 11.4889,-7.23677 10.7051,-11.34518c-0.03481,-0.18247 -0.09214,-0.3515 -0.16851,-0.50916zM166.88163,171.13494c0.7761,1.02295 2.00487,1.68361 3.38794,1.68361c1.55985,0 2.92342,-0.84033 3.66272,-2.09298c3.2964,-1.88366 -0.22084,-7.95413 -3.16272,-8.15702c-2.39325,-0.16505 -4.20031,2.41819 -4.61656,4.93925c-0.08712,0.33907 -0.13344,0.6945 -0.13344,1.06075c0,0.44275 0.0677,0.86968 0.19332,1.27101c0.07952,0.30629 0.19142,0.59353 0.33793,0.85399c0.09262,0.16466 0.20414,0.31055 0.33081,0.44139z" fill="#0096ff" stroke="none" stroke-width="1" stroke-linecap="butt"/><g fill="none" stroke-width="2.5" stroke-linecap="round"><path d="M198.74963,219.6171l-3.76394,-38.92247" stroke="#a85a00"/><path d="M202.93692,219.27791l-3.76394,-38.92246" stroke="#a85a00"/><path d="M200.29135,186.88802l-5.14104,0.68991" stroke="#cf8126"/><path d="M200.84425,192.60544l-5.14104,0.68991" stroke="#cf8126"/><path d="M196.23484,198.79288l5.14104,-0.68991" stroke="#cf8126"/><path d="M196.78774,204.51031l5.14104,-0.68991" stroke="#cf8126"/><path d="M197.25199,210.23962l5.14104,-0.68991" stroke="#cf8126"/><path d="M202.94593,215.26714l-5.14104,0.68991" stroke="#cf8126"/></g><g fill="none" stroke-width="2" stroke-linecap="round"><path d="M222.56788,163.3893l6.74853,23.43937" stroke="#a85a00"/><path d="M235.40651,184.91914l-6.74853,-23.43936" stroke="#a85a00"/><path d="M230.49971,165.21707l-7.46838,2.51985" stroke="#cf8126"/><path d="M224.02264,171.17999l7.46839,-2.51985" stroke="#cf8126"/><path d="M224.97582,174.49064l7.46839,-2.51986" stroke="#cf8126"/><path d="M233.43552,175.41385l-7.46839,2.51986" stroke="#cf8126"/><path d="M234.29806,178.90037l-7.46839,2.51986" stroke="#cf8126"/><path d="M227.82098,184.8633l7.46839,-2.51986" stroke="#cf8126"/></g><g fill="none" stroke-width="1.5" stroke-linecap="round"><path d="M197.62447,165.34824l-0.16598,-14.24764" stroke="#a85a00"/><path d="M202.40998,151.12342l0.16598,14.24764" stroke="#a85a00"/><path d="M196.90294,153.87125l6.1092,-0.07117" stroke="#cf8126"/><path d="M196.947,157.6533l6.1092,-0.07117" stroke="#cf8126"/><path d="M196.98937,161.28988l6.10919,-0.07117" stroke="#cf8126"/></g><g fill="none" stroke-width="1.5" stroke-linecap="round"><path d="M224.79182,194.1006l0.16599,14.24765" stroke="#a85a00"/><path d="M229.74331,194.12343l0.16598,14.24764" stroke="#a85a00"/><path d="M224.23628,196.87126l6.1092,-0.07118" stroke="#cf8126"/><path d="M224.28034,200.6533l6.1092,-0.07117" stroke="#cf8126"/><path d="M224.3227,204.28988l6.1092,-0.07117" stroke="#cf8126"/></g><path d="M192.73041,224.32474v-76.67187h19.40625c6.69792,0 11.90625,0.83854 15.625,2.51563c3.71875,1.66666 6.33334,4.28646 7.84375,7.85938c1.52084,3.5625 2.28125,8.18229 2.28125,13.85938v27.82813c0,5.73959 -0.76041,10.42709 -2.28125,14.0625c-1.51041,3.625 -4.10937,6.29166 -7.79687,8c-3.6875,1.69791 -8.84896,2.54688 -15.48437,2.54688zM209.68353,212.59036h2.64063c2.59375,0 4.45833,-0.38021 5.59375,-1.14062c1.13541,-0.76041 1.84375,-1.89584 2.125,-3.40625c0.28125,-1.51041 0.42188,-3.40104 0.42188,-5.67187v-33.42187c0,-2.27084 -0.17187,-4.09896 -0.51562,-5.48437c-0.34375,-1.39584 -1.08334,-2.40625 -2.21875,-3.03125c-1.13541,-0.63541 -2.96875,-0.95312 -5.5,-0.95312h-2.54687zM229.26372,166.81448c-0.68859,-0.49402 -1.45248,-0.83562 -1.99415,-0.49593c-2.34721,0 -4.25,1.90279 -4.25,4.25c0,0.07918 0.00217,0.15785 0.00644,0.23596c-0.32392,0.64783 1.53591,3.8721 1.96188,4.75332c1.89644,3.9232 2.94232,13.44383 9.50043,6.88572c2.04173,-2.04173 -1.86139,-12.13814 -3.64597,-14.17763c-0.20951,-0.23944 -0.85217,-0.93026 -1.57863,-1.45144zM203.93229,216.0589c1.01072,-0.57755 0.56361,-4.01993 0.48462,-4.81769c-0.34314,-3.46537 -0.41613,-11.15293 -6.17811,-9.71244c-1.38506,0.34627 -2.35779,1.73925 -3.09233,2.96348c-0.11846,0.19743 0.47743,5.31661 0.93701,8.67131c-0.042,0.23979 -0.0639,0.48649 -0.0639,0.73831c0,0.71412 0.17613,1.3871 0.48731,1.97787c0.0176,0.07649 0.03238,0.12659 0.04394,0.14713c0.09262,0.16466 0.20414,0.31055 0.33081,0.44139c0.83057,0.85794 2.31239,1.06901 3.38794,1.68361zM194.88163,194.96827c0.7761,1.02295 2.00487,1.68361 3.38794,1.68361c1.55985,0 2.92342,-0.84033 3.66272,-2.09298c2.94923,-1.68527 -0.62242,-8.68313 -2.57922,-9.07449c-4.74401,-0.9488 -6.60343,5.84042 -4.80224,9.04247c0.09262,0.16466 0.20414,0.31055 0.33081,0.44139zM198.40681,152.6124c-2.05687,0.29702 -3.63724,2.06703 -3.63724,4.20615c0,2.24902 1.74692,4.09003 3.95787,4.24012c2.88044,1.92029 7.01635,-4.00714 6.32403,-6.08409c-1.3007,-3.90211 -4.22599,-3.805 -6.64467,-2.36218zM231.15751,198.50216c-0.7761,-1.02295 -2.00487,-1.68361 -3.38794,-1.68361c-1.55985,0 -2.92342,0.84033 -3.66272,2.09298c-3.24568,1.85468 1.67137,7.40702 3.66272,7.40702c3.88843,0 5.28196,-4.59601 3.71875,-7.375c-0.09262,-0.16466 -0.20414,-0.31055 -0.33081,-0.44139z" fill="#0096ff" stroke="none" stroke-width="1" stroke-linecap="butt"/><g stroke-width="0.375"><path d="M137.04205,226.61195l-2.16382,-6.28155l2.65976,-0.91621l2.16382,6.28155z" fill="#ffca68" stroke="#000000" stroke-linecap="butt"/><path d="M123.17293,223.78295l2.60457,-6.11197l2.58795,1.10284l-2.60457,6.11197z" data-paper-data="{&quot;index&quot;:null}" fill="#ffca68" stroke="#000000" stroke-linecap="butt"/><path d="M145.30239,213.63786c-0.63376,0.45036 -1.51261,0.3017 -1.96298,-0.33206c-0.22868,-0.32181 -0.79806,-2.52156 -1.69158,-4.43239c-0.86615,-1.85229 -2.06576,-3.41865 -1.75382,-3.64032c0.36279,-0.2578 1.07569,-0.88361 3.09948,1.47639c1.51163,1.76275 2.26884,3.67691 2.88038,4.96541c0.2708,0.81332 0.06228,1.51261 -0.57148,1.96297z" data-paper-data="{&quot;index&quot;:null}" fill="#ffca68" stroke="#000000" stroke-linecap="butt"/><path d="M117.27482,211.7946c0.61153,-1.2885 1.36875,-3.20265 2.88038,-4.9654c2.0238,-2.36 2.73669,-1.73419 3.09948,-1.47639c0.31195,0.22168 -0.88767,1.78803 -1.75382,3.64032c-0.89352,1.91083 -1.4629,4.11058 -1.69158,4.43239c-0.45036,0.63376 -1.32922,0.78243 -1.96298,0.33206c-0.63376,-0.45036 -0.84228,-1.14966 -0.57148,-1.96298z" fill="#ffca68" stroke="#000000" stroke-linecap="butt"/><path d="M119.41005,198.4163c-0.00149,-0.0441 0.01688,-2.37669 0.24623,-3.39412c0.23495,-1.04225 2.99816,-1.18856 3.74821,-1.23385c1.17805,-0.07113 13.46851,-0.35516 18.28324,0.30628c0.59691,0.082 1.68211,0.50526 1.83795,1.74915c0.11467,0.91527 -0.49182,3.28318 -0.49006,3.33526c0.003,0.08885 -0.3161,0.8324 -0.91499,0.91406c-3.57692,0.48769 -16.66577,-1.53377 -20.26347,-1.64159c-0.21377,-0.0064 -0.11591,0.50837 -0.28262,0.82758c-0.22595,0.43267 -0.6874,0.7065 -0.73014,0.70794c-0.6938,0.02339 -1.41099,-0.87691 -1.43438,-1.5707z" fill="#ad7000" stroke="#000000" stroke-linecap="butt"/><path d="M121.7284,215.5179v-19.68692h19.60395v19.68692z" fill="#ffca68" stroke="#000000" stroke-linecap="butt"/><path d="M121.7284,215.5179v-6.87816l-2.51387,-0.6584c0,0 0.64727,-0.94654 1.08529,-1.38456c0.3956,-0.3956 1.30887,-1.06945 1.30887,-1.06945l11.13858,-0.05986c-0.0026,0.03957 0.0402,0.07949 0.0402,0.11971c0,0.99169 0.45092,1.79562 1.44261,1.79562c0.40548,0 1.02578,-0.23225 1.29596,-0.59575c0.33916,-0.45631 0.41009,-1.28001 0.40748,-1.31958l5.51852,-0.05985c0,0 1.01265,0.55981 1.39299,0.95401c0.41473,0.42985 1.00118,1.58726 1.00118,1.58726l-2.17963,0.86999l-0.33424,-0.09189v6.79091z" fill="#ff0000" stroke="#000000" stroke-linecap="butt"/><path d="M131.47257,199.9724c0,-0.76029 0.61634,-1.37664 1.37664,-1.37664c0.76029,0 1.37664,0.61634 1.37664,1.37664c0,0.76029 -0.61634,1.37664 -1.37664,1.37664c-0.76029,0 -1.37664,-0.61634 -1.37664,-1.37664z" fill="#ffffff" stroke="#000000" stroke-linecap="butt"/><path d="M134.63487,199.95631c0,-0.76029 0.61634,-1.37664 1.37664,-1.37664c0.76029,0 1.37664,0.61634 1.37664,1.37664c0,0.76029 -0.61634,1.37664 -1.37664,1.37664c-0.76029,0 -1.37664,-0.61634 -1.37664,-1.37664z" fill="#ffffff" stroke="#000000" stroke-linecap="butt"/><path d="M132.94672,200.02937c0,-0.24792 0.20098,-0.4489 0.4489,-0.4489c0.24793,0 0.4489,0.20099 0.4489,0.4489c0,0.24792 -0.20098,0.4489 -0.4489,0.4489c-0.24793,0 -0.4489,-0.20099 -0.4489,-0.4489z" fill="#000000" stroke="none" stroke-linecap="butt"/><path d="M136.16616,200.03037c0,-0.24792 0.20098,-0.4489 0.4489,-0.4489c0.24793,0 0.4489,0.20099 0.4489,0.4489c0,0.24792 -0.20098,0.4489 -0.4489,0.4489c-0.24793,0 -0.4489,-0.20099 -0.4489,-0.4489z" fill="#000000" stroke="none" stroke-linecap="butt"/><path d="M135.83106,202.89385c0,0 -0.77679,0.59965 -1.52948,0.60937c-0.92977,0.01201 -1.55726,-0.54262 -1.55726,-0.54262" fill="none" stroke="#000000" stroke-linecap="round"/><path d="M136.12389,210.61766l1.81622,-0.06957l-1.53081,0.93921l1.03783,2.74806l-2.46486,-1.66971l-2.49081,1.91321l1.11567,-2.78284l-1.68648,-1.04357l2.15351,0.10436l1.08973,-2.74806z" fill="#df67ff" stroke="#000000" stroke-linecap="round"/><path d="M123.06697,217.21806c-1.69435,-0.45614 -1.21273,-2.15514 -1.21273,-2.15514l19.55888,0.01305c0,0 0.38105,1.93991 -2.67168,2.05497c-0.15576,0.00587 -0.71785,0.00286 -0.71785,0.00286l0.68963,3.09362l-4.05635,0.96355l-1.15855,-3.76847l-3.55449,0.06722l-2.09653,3.7897l-3.13364,-1.6411l1.04167,-2.47494c0,0 -2.64437,0.06655 -2.68838,0.0547z" fill="#00b9ff" stroke="#000000" stroke-linecap="butt"/><path d="M134.22687,216.36052v-0.87002h0.38012v0.87002z" fill="#005b9a" stroke="none" stroke-linecap="butt"/><path d="M132.4899,216.44877v-0.87002h0.38013v0.87002z" fill="#005b9a" stroke="none" stroke-linecap="butt"/><path d="M132.45202,216.91149c-0.17741,-0.12242 -0.21202,-0.3992 -0.04473,-0.56649c0.16921,-0.16921 0.72958,-0.03147 0.66287,0.21312c0.00763,0.02956 0.01169,0.06055 0.01169,0.09249c0,0.20376 -0.16518,0.36894 -0.36895,0.36894c-0.05072,0.03927 -0.11749,-0.00033 -0.1794,-0.04647c-0.02894,-0.02157 -0.05681,-0.04456 -0.08148,-0.06159z" fill="#ffcc00" stroke="none" stroke-linecap="butt"/><path d="M134.14546,216.82325c-0.17741,-0.12242 -0.21202,-0.3992 -0.04473,-0.56649c0.16921,-0.16921 0.72958,-0.03147 0.66287,0.21311c0.00763,0.02956 0.01169,0.06055 0.01169,0.09249c0,0.20376 -0.16518,0.36895 -0.36895,0.36895c-0.05072,0.03927 -0.11749,-0.00034 -0.1794,-0.04647c-0.02894,-0.02157 -0.05681,-0.04456 -0.08148,-0.06159z" fill="#ffcc00" stroke="none" stroke-linecap="butt"/><g data-paper-data="{&quot;index&quot;:null}" stroke="#000000" stroke-linecap="butt"><path d="M126.67709,227.14433c-0.59984,-0.26459 -1.46602,-0.65303 -2.25198,-1.00689c0.13212,-0.37737 0.267,-0.75369 0.4143,-1.12553c0.07004,-0.17677 0.14003,-0.35347 0.21044,-0.52998c0.03524,0.01622 0.07048,0.03244 0.10572,0.04866c0.57097,0.26279 1.14222,0.52488 1.71426,0.78532c0.1638,0.07457 0.32773,0.14861 0.49186,0.22209c-0.22822,0.53543 -0.45642,1.07088 -0.6846,1.60633z" fill="#00b9ff"/><path d="M127.3969,225.45539c-0.16347,-0.07319 -0.32674,-0.14694 -0.48987,-0.22121c-0.57193,-0.26038 -1.14307,-0.52243 -1.71392,-0.78516c-0.03664,-0.01686 -0.07328,-0.03372 -0.10992,-0.05058c0.15146,-0.37882 0.30508,-0.75665 0.46512,-1.1322c0.03919,-0.09197 0.07838,-0.18393 0.11757,-0.2759c0.8364,0.36428 1.76715,0.76932 2.35354,1.02352c-0.2095,0.47968 -0.41713,0.96005 -0.62252,1.44154z" fill="#005b9a"/><path d="M123.21354,223.63843c0.07665,0.03421 0.15311,0.0688 0.22932,0.10389c0.50844,0.23401 1.01689,0.46802 1.52533,0.70202c-0.07102,0.17801 -0.14161,0.35621 -0.21225,0.53449c-0.14681,0.37057 -0.28129,0.74555 -0.413,1.12161c-0.98048,-0.44157 -1.81501,-0.81975 -1.81501,-0.81975z" fill="#005b9a"/><path d="M125.58357,222.95448c-0.03928,0.09218 -0.07857,0.18438 -0.11785,0.27656c-0.1597,0.37476 -0.31302,0.75179 -0.46418,1.12981c-0.50705,-0.23336 -1.01408,-0.46674 -1.52113,-0.7001c-0.07719,-0.03553 -0.15463,-0.07057 -0.23226,-0.10519l0.5718,-1.36965c0,0 0.80995,0.35318 1.76364,0.76856z" fill="#00b9ff"/><path d="M129.60774,226.546c-0.36896,0.86581 -1.44238,1.23771 -2.39756,0.83067c-0.11432,-0.04872 -0.26834,-0.11579 -0.45092,-0.19614c0.22812,-0.53531 0.45626,-1.0706 0.68441,-1.60588c0.38253,0.17077 0.76623,0.3385 1.15194,0.50286c0.34174,0.14563 0.68346,0.29126 1.0252,0.43688c-0.00423,0.01056 -0.00858,0.02109 -0.01306,0.0316z" fill="#005b9a"/><path d="M129.65183,226.43003c-0.34035,-0.14503 -0.68069,-0.29008 -1.02103,-0.43511c-0.38571,-0.16437 -0.76939,-0.33211 -1.15192,-0.50288c0.20551,-0.48181 0.41329,-0.9625 0.62292,-1.44249c0.20762,0.08995 0.36355,0.15726 0.44449,0.19174c0.91287,0.38902 1.38736,1.3487 1.10555,2.18873z" fill="#00b9ff"/></g><g data-paper-data="{&quot;index&quot;:null}" stroke="#000000" stroke-linecap="butt"><path d="M139.24523,226.81759c-0.15489,-0.36861 -0.30705,-0.73827 -0.44696,-1.11297c-0.06651,-0.17812 -0.133,-0.35618 -0.19906,-0.53436c0.03703,-0.01159 0.07404,-0.02317 0.11107,-0.03476c0.59986,-0.18769 1.19947,-0.37607 1.79856,-0.56623c0.17154,-0.05445 0.34282,-0.10938 0.51388,-0.16486c0.18952,0.55032 0.37907,1.10063 0.56864,1.65095c-0.62249,0.20571 -1.52566,0.49801 -2.34612,0.76222z" fill="#00b9ff"/><path d="M140.99347,224.31951c-0.17038,0.05525 -0.34096,0.10996 -0.51181,0.16418c-0.59897,0.19012 -1.19846,0.37847 -1.7982,0.56612c-0.03849,0.01204 -0.07698,0.02409 -0.11548,0.03614c-0.14151,-0.38264 -0.28076,-0.766 -0.41372,-1.15197c-0.03256,-0.09452 -0.06512,-0.18904 -0.09768,-0.28357c0.86486,-0.29029 1.82708,-0.61356 2.43263,-0.81795c0.16604,0.4964 0.33393,0.99207 0.50425,1.48705z" fill="#005b9a"/><path d="M136.67108,225.77513c0.07981,-0.02599 0.15974,-0.05156 0.23982,-0.07662c0.53417,-0.16714 1.06834,-0.33427 1.60252,-0.50141c0.06661,0.1797 0.13367,0.35928 0.20075,0.53891c0.13943,0.37341 0.29098,0.74183 0.4453,1.10918c-1.0236,0.32949 -1.8964,0.60821 -1.8964,0.60821z" fill="#005b9a"/><path d="M137.97148,223.67899c0.03264,0.09474 0.06527,0.18949 0.09791,0.28424c0.13268,0.38516 0.2716,0.76773 0.4128,1.14958c-0.5327,0.16668 -1.0654,0.33334 -1.59811,0.50002c-0.0811,0.02537 -0.16204,0.05128 -0.24287,0.07761l-0.4937,-1.39968c0,0 0.8378,-0.28079 1.82396,-0.61177z" fill="#00b9ff"/><path d="M142.14268,225.87048c-0.11749,0.04047 -0.27675,0.09393 -0.4661,0.15668c-0.18951,-0.55015 -0.379,-1.10032 -0.56848,-1.65049c0.39835,-0.12968 0.79552,-0.26237 1.19193,-0.39894c0.35122,-0.12099 0.70243,-0.24197 1.05365,-0.36296c0.00393,0.01067 0.00776,0.02141 0.01148,0.03221c0.30652,0.88983 -0.2408,1.88531 -1.22249,2.22347z" fill="#005b9a"/><path d="M143.32016,223.53138c-0.34979,0.12049 -0.69958,0.24098 -1.04937,0.36148c-0.39641,0.13655 -0.79358,0.26925 -1.19192,0.39891c-0.17044,-0.49531 -0.33845,-0.99129 -0.50459,-1.48802c0.21436,-0.07241 0.3752,-0.12698 0.45839,-0.15563c0.9382,-0.32318 1.93358,0.07097 2.28749,0.88326z" fill="#00b9ff"/></g></g><g stroke="#000000" stroke-width="0.375" stroke-linecap="butt"><path d="M295.03315,206.90688l0.52786,-5.01252l2.12242,0.22351l-0.52786,5.01252z" fill="#ffca68"/><path d="M287.86131,207.373l0.52786,-5.01252l2.12242,0.22351l-0.52786,5.01252z" fill="#ffca68"/><path d="M305.11017,189.62479c0.44596,0.356 0.55331,0.84716 0.29087,1.37762c-0.55347,0.82587 -1.26157,2.0648 -2.52802,3.14102c-1.69556,1.44087 -2.18869,0.95951 -2.44397,0.75572c-0.21951,-0.17523 0.79751,-1.14296 1.58337,-2.33124c0.8107,-1.22583 1.39749,-2.6735 1.59303,-2.87373c0.38508,-0.39433 1.05877,-0.4254 1.50474,-0.0694z" data-paper-data="{&quot;index&quot;:null}" fill="#ffca68"/><path d="M283.97569,186.5516c0.51393,-0.28943 1.16519,-0.10744 1.45462,0.40649c0.14697,0.26096 0.40177,1.96584 0.92408,3.47849c0.50631,1.46631 1.28694,2.74338 1.03397,2.88585c-0.29419,0.16568 -0.88177,0.58119 -2.22116,-1.36015c-1.00042,-1.45004 -1.41963,-2.95437 -1.77864,-3.97509c-0.13969,-0.63514 0.07319,-1.14616 0.58712,-1.4356z" data-paper-data="{&quot;index&quot;:null}" fill="#ffca68"/><path d="M285.5344,185.67914c0.00238,-0.03339 0.20157,-1.79179 0.45545,-2.54119c0.26007,-0.76768 2.35644,-0.65852 2.92593,-0.6331c0.89445,0.03993 10.18977,0.80214 13.76977,1.68371c0.44383,0.10929 1.22896,0.51485 1.24771,1.4657c0.0138,0.69965 -0.63192,2.43798 -0.63473,2.47741c-0.0048,0.06727 -0.30462,0.6029 -0.76295,0.61693c-2.73742,0.08375 -12.45192,-2.4813 -15.1577,-2.84849c-0.16077,-0.02182 -0.12784,0.37434 -0.27898,0.60193c-0.20485,0.30848 -0.57475,0.47842 -0.60711,0.47611c-0.5253,-0.03748 -0.99487,-0.77371 -0.9574,-1.29901z" fill="#ad7000"/><path d="M285.92478,198.76594l1.56416,-14.85314l14.79054,1.55756l-1.56416,14.85314z" fill="#ffca68"/><path d="M286.00322,198.67147l0.38961,-5.00041c0,0 -0.998,-0.60466 -1.21965,-1.05385c-0.28772,-0.58307 -0.54974,-1.00448 -0.54974,-1.00448l2.08324,-0.48833l14.98068,1.48627l1.5795,1.04334c0,0 -0.66394,0.64837 -0.99333,0.90878c-0.31153,0.24628 -0.93242,0.61365 -0.93242,0.61365l-0.54734,5.0526z" fill="#ff0000"/><path d="M286.79484,200.20016c-1.24209,-0.47876 -0.74374,-1.72234 -0.74374,-1.72234l14.7555,1.56383c0,0 0.13336,1.49387 -2.17896,1.33813c-0.11798,-0.00795 -0.37337,-0.03714 -0.37337,-0.03714l-0.34569,2.59747l-3.03693,-0.26967l0.41626,-2.64825l-4.15573,-0.43202l-0.22389,2.54772l-3.13468,-0.30355l0.14597,-2.51183c0,0 -1.09246,-0.10994 -1.12473,-0.12237z" fill="#00b9ff"/><g><path d="M286.42083,208.53229c0.04624,-0.43913 0.09247,-0.87827 0.13868,-1.3174c0.13591,0.01183 0.2719,0.02321 0.40799,0.0342c0.47529,0.03836 0.95066,0.07532 1.42611,0.11172c0.02934,0.00225 0.05869,0.00449 0.08803,0.00674c-0.01843,0.14298 -0.03721,0.28595 -0.05598,0.42896c-0.0395,0.30085 -0.08891,0.60006 -0.14052,0.89897c-0.65156,-0.05533 -1.36906,-0.11733 -1.86431,-0.16318z" fill="#00b9ff"/><path d="M286.68569,205.96187c0.4825,0.04778 1.24892,0.12259 1.93777,0.18962c-0.00794,0.07543 -0.01589,0.15085 -0.02383,0.22628c-0.03243,0.30799 -0.06996,0.61513 -0.10929,0.92213c-0.03051,-0.00234 -0.06102,-0.00467 -0.09153,-0.00701c-0.47535,-0.0364 -0.95063,-0.07335 -1.42583,-0.1117c-0.13554,-0.01094 -0.27098,-0.02228 -0.40634,-0.03405c0.04145,-0.39495 0.081,-0.79 0.11905,-1.18526z" fill="#005b9a"/><path d="M289.85885,208.82732c0,0 -0.69273,-0.05713 -1.5056,-0.12607c0.0514,-0.29788 0.10057,-0.59607 0.13994,-0.89588c0.01894,-0.14424 0.03787,-0.28842 0.05646,-0.43262c0.42338,0.03242 0.84675,0.06483 1.27013,0.09725c0.06347,0.00486 0.12691,0.01013 0.19034,0.01572z" fill="#005b9a"/><path d="M290.14391,206.29913l-0.12616,1.11889c-0.06424,-0.00568 -0.1285,-0.01101 -0.19278,-0.01594c-0.42221,-0.03233 -0.84443,-0.06465 -1.26664,-0.09698c0.03923,-0.30636 0.07666,-0.61285 0.10903,-0.9202c0.00796,-0.0756 0.01592,-0.15121 0.02389,-0.22681c0.78544,0.07642 1.45266,0.14104 1.45266,0.14104z" fill="#00b9ff"/><path d="M284.69873,207.05462c0.00091,-0.00862 0.00191,-0.01721 0.003,-0.02577c0.28026,0.02951 0.56052,0.05903 0.84079,0.08854c0.31633,0.03331 0.63256,0.06365 0.94914,0.09155c-0.0462,0.43901 -0.09242,0.87803 -0.13864,1.31704c-0.15068,-0.01409 -0.27752,-0.02643 -0.37127,-0.0363c-0.78336,-0.08249 -1.35778,-0.72499 -1.283,-1.43505z" fill="#005b9a"/><path d="M286.25252,205.91831c0.06638,0.00699 0.19458,0.01989 0.36539,0.03684c-0.03808,0.39553 -0.07765,0.79083 -0.11913,1.18604c-0.31658,-0.02789 -0.63281,-0.05822 -0.94913,-0.09154c-0.27912,-0.02939 -0.55825,-0.05879 -0.83737,-0.08818c0.12303,-0.66083 0.79159,-1.12201 1.54024,-1.04317z" fill="#00b9ff"/></g><g data-paper-data="{&quot;index&quot;:null}"><path d="M296.48175,207.75512c0.01179,-0.3031 0.02579,-0.60604 0.04982,-0.90852c0.01142,-0.14379 0.02284,-0.28753 0.0346,-0.43121c0.02917,0.00391 0.05834,0.00783 0.08751,0.01175c0.47259,0.06343 0.94524,0.12631 1.4181,0.18779c0.13539,0.01761 0.27077,0.0348 0.40616,0.05154c-0.04628,0.43913 -0.09254,0.87826 -0.13878,1.31739c-0.49393,-0.05831 -1.20861,-0.14713 -1.8574,-0.22874z" fill="#00b9ff"/><path d="M298.48508,206.59872c-0.13485,-0.01668 -0.26968,-0.0338 -0.40452,-0.05134c-0.47276,-0.06147 -0.94532,-0.12434 -1.41782,-0.18776c-0.03033,-0.00407 -0.06065,-0.00814 -0.09098,-0.01221c0.02548,-0.30845 0.05276,-0.61667 0.08519,-0.92467c0.00794,-0.07543 0.01589,-0.15085 0.02383,-0.22628c0.68769,0.07793 1.45289,0.16442 1.93476,0.21819c-0.04512,0.39452 -0.08873,0.78914 -0.13046,1.18406z" fill="#005b9a"/><path d="M295.04661,206.21259c0.0632,0.00774 0.12636,0.0158 0.18944,0.02427c0.42084,0.05649 0.84168,0.11297 1.26252,0.16946c-0.01186,0.14491 -0.02338,0.28987 -0.0349,0.43489c-0.02395,0.30143 -0.03797,0.60333 -0.04975,0.90538c-0.8094,-0.1019 -1.49883,-0.19033 -1.49883,-0.19033z" fill="#005b9a"/><path d="M296.6131,205.18881c-0.00796,0.0756 -0.01592,0.15121 -0.02389,0.22681c-0.03237,0.30735 -0.0596,0.61492 -0.08505,0.92273c-0.41969,-0.05633 -0.83937,-0.11266 -1.25905,-0.16899c-0.06389,-0.00858 -0.12785,-0.01674 -0.19187,-0.02457l0.10968,-1.12062c0,0 0.66604,0.07577 1.45017,0.16465z" fill="#00b9ff"/><path d="M298.7775,208.03365c-0.09375,-0.00987 -0.22039,-0.02422 -0.37069,-0.04183c0.04623,-0.43901 0.09248,-0.87802 0.13874,-1.31703c0.31545,0.03866 0.63106,0.07486 0.94739,0.10817c0.28026,0.02951 0.56052,0.05903 0.84079,0.08854c-0.00072,0.0086 -0.00153,0.01721 -0.00244,0.02583c-0.07478,0.71006 -0.77043,1.21881 -1.55379,1.13631z" fill="#005b9a"/><path d="M300.33744,206.80341c-0.27912,-0.02939 -0.55825,-0.05879 -0.83737,-0.08818c-0.31633,-0.03331 -0.63194,-0.06952 -0.94738,-0.10818c0.04175,-0.39518 0.08539,-0.79006 0.13054,-1.18484c0.1706,0.019 0.29867,0.03309 0.36505,0.04008c0.74866,0.07884 1.30648,0.66916 1.28916,1.34113z" fill="#00b9ff"/></g></g><g stroke-width="0.375"><path d="M253.53966,152.80773l-0.76824,-4.01008l1.69796,-0.32529l0.76824,4.01008z" fill="#ffca68" stroke="#000000" stroke-linecap="butt"/><path d="M246.61023,152.65127l0.26996,-4.07407l1.72506,0.11431l-0.26996,4.07407z" fill="#ffca68" stroke="#000000" stroke-linecap="butt"/><path d="M258.93112,144.28968c-0.36707,0.30588 -0.9126,0.25628 -1.21848,-0.11078c-0.15532,-0.18639 -0.60807,-1.50738 -1.24579,-2.63604c-0.61818,-1.09408 -1.4272,-1.99721 -1.24652,-2.14777c0.21012,-0.1751 0.61739,-0.59222 1.96889,0.7583c1.00947,1.00874 1.56383,2.14587 1.99938,2.90651c0.20433,0.48557 0.10958,0.9239 -0.25748,1.22978z" data-paper-data="{&quot;index&quot;:null}" fill="#ffca68" stroke="#000000" stroke-linecap="butt"/><path d="M241.6704,144.48361c0.31388,-0.81839 0.68747,-2.02703 1.53048,-3.17852c1.12864,-1.54163 1.59501,-1.19183 1.82947,-1.051c0.20161,0.1211 -0.45949,1.13752 -0.90275,2.31339c-0.45727,1.21304 -0.70229,2.5878 -0.82722,2.79578c-0.24603,0.4096 -0.77753,0.54219 -1.18712,0.29615c-0.4096,-0.24603 -0.57039,-0.66467 -0.44286,-1.17582z" fill="#ffca68" stroke="#000000" stroke-linecap="butt"/><path d="M242.34706,136.18534c-0.00299,-0.02695 -0.10187,-1.4571 -0.00938,-2.09135c0.09475,-0.64973 1.78098,-0.86984 2.23843,-0.93301c0.71848,-0.09921 8.23596,-0.85356 11.21738,-0.67561c0.36962,0.02206 1.05456,0.23017 1.20878,0.98499c0.11348,0.55541 -0.14634,2.03497 -0.1428,2.0668c0.00603,0.0543 -0.15439,0.52497 -0.51749,0.60328c-2.16871,0.46772 -10.28424,-0.1529 -12.4938,-0.04909c-0.13129,0.00617 -0.04702,0.31697 -0.13409,0.52044c-0.11802,0.27578 -0.38784,0.46536 -0.41396,0.46826c-0.42401,0.04709 -0.90598,-0.4707 -0.95307,-0.89471z" fill="#ad7000" stroke="#000000" stroke-linecap="butt"/><path d="M244.5751,146.55475l-0.92956,-12.06301l12.01217,-0.92564l0.92956,12.06301z" fill="#ffca68" stroke="#000000" stroke-linecap="butt"/><path d="M244.5751,146.55475l-0.32477,-4.21454l-1.57144,-0.28473c0,0 0.35191,-0.61054 0.59963,-0.89963c0.22372,-0.26108 0.7515,-0.7171 0.7515,-0.7171l4.74038,-0.40218c0.00027,0.02437 0.00135,0.04889 0.00325,0.07354c0.04682,0.60765 0.57738,1.06229 1.18504,1.01547c0.60765,-0.04682 1.06229,-0.57739 1.01547,-1.18504c-0.0019,-0.02465 -0.00459,-0.04904 -0.00806,-0.07316l5.21715,-0.43892c0,0 0.64692,0.29521 0.89859,0.51879c0.27442,0.2438 0.68841,0.92531 0.68841,0.92531l-1.29447,0.63599l-0.20914,-0.04052l0.32065,4.16108z" fill="#ff0000" stroke="#000000" stroke-linecap="butt"/><path d="M247.78576,136.62608c-0.0359,-0.46587 0.31266,-0.87263 0.77853,-0.90853c0.46587,-0.0359 0.87263,0.31266 0.90853,0.77853c0.0359,0.46587 -0.31266,0.87263 -0.77853,0.90853c-0.46587,0.0359 -0.87263,-0.31266 -0.90853,-0.77853z" fill="#ffffff" stroke="#000000" stroke-linecap="butt"/><path d="M249.87059,136.39163c-0.0359,-0.46587 0.31266,-0.87263 0.77853,-0.90853c0.46587,-0.0359 0.87263,0.31266 0.90853,0.77853c0.0359,0.46587 -0.31266,0.87263 -0.77853,0.90853c-0.46587,0.0359 -0.87263,-0.31266 -0.90853,-0.77853z" fill="#ffffff" stroke="#000000" stroke-linecap="butt"/><path d="M248.46197,136.78357c-0.01171,-0.15191 0.10195,-0.28455 0.25387,-0.29626c0.15191,-0.01171 0.28455,0.10195 0.29626,0.25387c0.01171,0.15191 -0.10195,0.28455 -0.25387,0.29626c-0.15191,0.01171 -0.28455,-0.10195 -0.29626,-0.25387z" fill="#000000" stroke="none" stroke-linecap="butt"/><path d="M250.47562,136.59533c-0.01171,-0.15191 0.10195,-0.28455 0.25387,-0.29626c0.15191,-0.01171 0.28455,0.10195 0.29626,0.25387c0.01171,0.15191 -0.10195,0.28455 -0.25387,0.29626c-0.15191,0.01171 -0.28455,-0.10195 -0.29626,-0.25387z" fill="#000000" stroke="none" stroke-linecap="butt"/><path d="M250.33508,138.25742c0,0 -0.56631,0.27771 -0.96301,0.25543c-0.3967,-0.02228 -0.93143,-0.36185 -0.93143,-0.36185" fill="none" stroke="#000000" stroke-linecap="round"/><path d="M250.82011,143.05311l1.23792,-0.13827l-1.00182,0.65611l0.83902,1.6292l-1.76334,-0.8933l-1.61189,1.30348l0.63106,-1.76392l-1.20183,-0.55063l1.47665,-0.04946l0.61497,-1.74124z" fill="#df67ff" stroke="#000000" stroke-linecap="round"/><path d="M245.4097,147.61121c-1.05974,-0.19949 -0.84485,-1.26328 -0.84485,-1.26328l11.98517,-0.91551c0,0 0.32508,1.17067 -1.54002,1.38531c-0.09516,0.01095 -1.15207,0.19835 -1.15207,0.19835l0.90748,1.80671l-2.09078,0.81257l-1.47985,-2.45652l-1.37365,0.11039l-0.92086,2.50798l-2.32491,-0.23064l0.63873,-2.12717c0,0 -1.77688,0.17699 -1.80441,0.17181z" fill="#00b9ff" stroke="#000000" stroke-linecap="butt"/><path d="M250.62395,146.60801l-0.04108,-0.5331l0.23292,-0.01795l0.04108,0.5331z" fill="#005b9a" stroke="none" stroke-linecap="butt"/><path d="M249.88408,146.66502l-0.04108,-0.5331l0.23292,-0.01795l0.04108,0.5331z" fill="#005b9a" stroke="none" stroke-linecap="butt"/><path d="M249.85777,146.97946c-0.11448,-0.06664 -0.14876,-0.2346 -0.05415,-0.345c0.09569,-0.11167 0.44555,-0.05373 0.41623,0.09929c0.00607,0.01775 0.01002,0.03655 0.01153,0.05612c0.00962,0.12485 -0.08379,0.23387 -0.20865,0.24349c-0.02922,0.02646 -0.07201,0.00534 -0.11212,-0.02001c-0.01875,-0.01185 -0.03692,-0.02462 -0.05284,-0.03389z" fill="#ffcc00" stroke="none" stroke-linecap="butt"/><path d="M250.62503,146.92034c-0.11448,-0.06664 -0.14876,-0.2346 -0.05415,-0.345c0.09569,-0.11167 0.44555,-0.05373 0.41623,0.09929c0.00607,0.01775 0.01002,0.03655 0.01153,0.05612c0.00962,0.12485 -0.08379,0.23387 -0.20865,0.24349c-0.02922,0.02646 -0.07201,0.00534 -0.11212,-0.02001c-0.01875,-0.01185 -0.03692,-0.02462 -0.05284,-0.03389z" fill="#ffcc00" stroke="none" stroke-linecap="butt"/><g stroke="#000000" stroke-linecap="butt"><path d="M245.48059,153.6349c0.02365,-0.35692 0.04729,-0.71384 0.07091,-1.07076c0.11039,0.00531 0.22082,0.01025 0.33133,0.01487c0.38594,0.01613 0.7719,0.03113 1.1579,0.04568c0.02382,0.0009 0.04765,0.00179 0.07147,0.00269c-0.01043,0.11632 -0.02114,0.23263 -0.03185,0.34899c-0.02253,0.24477 -0.05314,0.48852 -0.08553,0.7321c-0.52916,-0.02434 -1.1119,-0.052 -1.51423,-0.07358z" fill="#00b9ff"/><path d="M245.61431,151.5459c0.39207,0.02353 1.01482,0.06003 1.57452,0.09267c-0.00406,0.0613 -0.00812,0.12261 -0.01219,0.18391c-0.01659,0.25033 -0.03732,0.50013 -0.05953,0.74987c-0.02477,-0.00093 -0.04954,-0.00187 -0.07431,-0.0028c-0.38592,-0.01454 -0.77181,-0.02954 -1.15767,-0.04567c-0.11006,-0.0046 -0.22005,-0.00953 -0.32999,-0.01481c0.02116,-0.321 0.04077,-0.64202 0.05917,-0.96317z" fill="#005b9a"/><path d="M248.27283,153.7658c0,0 -0.56254,-0.0245 -1.2227,-0.05479c0.03226,-0.24274 0.0627,-0.48566 0.08516,-0.72958c0.0108,-0.11735 0.0216,-0.23466 0.03212,-0.35197c0.34373,0.01295 0.68746,0.0259 1.03119,0.03885c0.05153,0.00194 0.10305,0.00421 0.15457,0.00675z" fill="#005b9a"/><path d="M248.42423,151.71036l-0.067,0.90967c-0.05218,-0.00258 -0.10436,-0.00488 -0.15655,-0.00685c-0.34278,-0.01292 -0.68557,-0.02583 -1.02835,-0.03875c0.02214,-0.24922 0.04282,-0.49849 0.05937,-0.7483c0.00407,-0.06145 0.00814,-0.1229 0.01222,-0.18435c0.63819,0.0372 1.18031,0.06858 1.18031,0.06858z" fill="#00b9ff"/><path d="M244.04022,152.49282c0.00046,-0.00701 0.001,-0.01399 0.00162,-0.02095c0.22779,0.01509 0.45558,0.03019 0.68337,0.04528c0.2571,0.01704 0.51404,0.03167 0.77118,0.04431c-0.02362,0.35682 -0.04725,0.71364 -0.07089,1.07046c-0.12241,-0.00667 -0.22548,-0.01268 -0.30168,-0.01773c-0.6367,-0.04219 -1.12184,-0.54424 -1.0836,-1.12136z" fill="#005b9a"/><path d="M245.2623,151.52424c0.05395,0.00358 0.15813,0.00999 0.29693,0.01836c-0.01841,0.32136 -0.03803,0.64259 -0.05921,0.96381c-0.25714,-0.01264 -0.51407,-0.02727 -0.77117,-0.0443c-0.22687,-0.01503 -0.45373,-0.03007 -0.68059,-0.0451c0.07885,-0.53879 0.60555,-0.93308 1.21404,-0.89276z" fill="#00b9ff"/></g><g data-paper-data="{&quot;index&quot;:null}" stroke="#000000" stroke-linecap="butt"><path d="M254.86199,153.12506c-0.06206,-0.23775 -0.12237,-0.47591 -0.17479,-0.71605c-0.02492,-0.11416 -0.04983,-0.22828 -0.07447,-0.34244c0.02353,-0.00382 0.04707,-0.00763 0.0706,-0.01145c0.38129,-0.06184 0.76249,-0.12412 1.14353,-0.18753c0.1091,-0.01816 0.21809,-0.03663 0.32699,-0.05545c0.06728,0.35132 0.13457,0.70263 0.20187,1.05394c-0.39663,0.07082 -0.97156,0.16984 -1.49373,0.25898z" fill="#00b9ff"/><path d="M256.14347,151.75794c-0.10846,0.01875 -0.21702,0.03714 -0.32568,0.05522c-0.38096,0.0634 -0.76208,0.12567 -1.1433,0.18749c-0.02447,0.00397 -0.04893,0.00794 -0.0734,0.0119c-0.0527,-0.24512 -0.10396,-0.49048 -0.15116,-0.73688c-0.01156,-0.06034 -0.02312,-0.12068 -0.03468,-0.18102c0.55146,-0.10113 1.16501,-0.21383 1.55122,-0.28533c0.0577,0.31646 0.11658,0.63264 0.177,0.94862z" fill="#005b9a"/><path d="M253.38701,152.2663c0.05082,-0.00885 0.10167,-0.01743 0.15257,-0.02569c0.33954,-0.05507 0.67907,-0.11013 1.01861,-0.1652c0.02484,0.11513 0.04997,0.23022 0.0751,0.34536c0.05224,0.23932 0.11229,0.47666 0.17411,0.7136c-0.65144,0.11113 -1.20671,0.20453 -1.20671,0.20453z" fill="#005b9a"/><path d="M254.36097,151.10461c0.01159,0.06048 0.02317,0.12097 0.03476,0.18145c0.04711,0.24588 0.09824,0.49073 0.15082,0.73535c-0.3386,0.05492 -0.67721,0.10983 -1.01581,0.16474c-0.05155,0.00836 -0.10305,0.01706 -0.15452,0.02602l-0.17821,-0.89455c0,0 0.53416,-0.09771 1.16296,-0.21301z" fill="#00b9ff"/><path d="M256.70725,152.80171c-0.075,0.01437 -0.17655,0.03299 -0.29721,0.05465c-0.06728,-0.35121 -0.13455,-0.70243 -0.20181,-1.05365c0.25364,-0.04413 0.50683,-0.0902 0.7599,-0.13869c0.22421,-0.04295 0.44843,-0.08591 0.67264,-0.12886c0.00146,0.00684 0.00286,0.0137 0.00418,0.0206c0.10883,0.56806 -0.31099,1.12589 -0.93768,1.24595z" fill="#005b9a"/><path d="M257.62764,151.4815c-0.2233,0.04278 -0.4466,0.08556 -0.66991,0.12834c-0.25307,0.04848 -0.50625,0.09455 -0.75989,0.13868c-0.06046,-0.31618 -0.11939,-0.63257 -0.17712,-0.94924c0.13672,-0.02535 0.23933,-0.04451 0.29243,-0.05468c0.59893,-0.11474 1.17007,0.21188 1.31449,0.73691z" fill="#00b9ff"/></g></g></g></g></svg>