<svg version="1.1" xmlns="http://www.w3.org/2000/svg" xmlns:xlink="http://www.w3.org/1999/xlink" width="397.9398" height="135.71655" viewBox="0,0,397.9398,135.71655"><g transform="translate(-41.86345,-111.05998)"><g data-paper-data="{&quot;isPaintingLayer&quot;:true}" fill-rule="nonzero" stroke="none" stroke-width="1" stroke-linejoin="miter" stroke-miterlimit="10" stroke-dasharray="" stroke-dashoffset="0" style="mix-blend-mode: normal"><path d="M100.71082,201.8673v-76.67187h19.40625c6.69792,0 11.90625,0.83854 15.625,2.51563c3.71875,1.66666 6.33334,4.28646 7.84375,7.85938c1.52084,3.5625 2.28125,8.18229 2.28125,13.85938v27.82813c0,5.73959 -0.76041,10.42709 -2.28125,14.0625c-1.51041,3.625 -4.10937,6.29166 -7.79687,8c-3.6875,1.69791 -8.84896,2.54688 -15.48437,2.54688zM117.66394,190.13292h2.64063c2.59375,0 4.45833,-0.38021 5.59375,-1.14062c1.13541,-0.76041 1.84375,-1.89584 2.125,-3.40625c0.28125,-1.51041 0.42188,-3.40104 0.42188,-5.67187v-33.42187c0,-2.27084 -0.17187,-4.09896 -0.51562,-5.48437c-0.34375,-1.39584 -1.08334,-2.40625 -2.21875,-3.03125c-1.13541,-0.63541 -2.96875,-0.95312 -5.5,-0.95312h-2.54687z" fill="#004cad" stroke-linecap="butt"/><path d="M374.76676,201.8673v-76.67187h21.10938c5.17708,0 9.65625,0.56771 13.4375,1.70313c3.79167,1.13541 6.74479,3.17188 8.85938,6.10938c2.11458,2.9375 3.17188,7.08334 3.17188,12.4375c0,3.15625 -0.25521,5.96875 -0.76562,8.4375c-0.5,2.45834 -1.42708,4.58854 -2.78125,6.39063c-1.35417,1.79166 -3.29687,3.28646 -5.82812,4.48438l10.51563,37.10938l17.27604,32.29166c0,0 -5.02359,-1.94221 -11.6023,-5.72863c-5.48926,-3.15938 -11.20362,-6.66389 -13.54408,-10.41855c-1.07256,-1.72064 -5.0052,-5.41603 -6.07317,-7.92844c-1.48753,-3.49946 -2.99759,-7.28063 -4.20649,-11.58391c-4.1006,-14.5968 -7.78751,-30.9915 -7.78751,-30.9915h-4.82812v34.35938zM392.26156,157.75792h4.73438c2.39583,0 4.25521,-0.42709 5.57813,-1.28125c1.32292,-0.85416 2.25,-2.08334 2.78125,-3.6875c0.54167,-1.61459 0.8125,-3.55729 0.8125,-5.82812c0,-3.28125 -0.59896,-5.83334 -1.79687,-7.65625c-1.19792,-1.83334 -3.40625,-2.75 -6.625,-2.75h-5.48437z" fill="#004cad" stroke-linecap="butt"/><path d="M224.89971,201.8673v-76.67187h25.75c4.60416,0 8.39063,0.86979 11.35938,2.60938c2.96875,1.72916 5.17708,4.25 6.625,7.5625c1.45833,3.3125 2.1875,7.33854 2.1875,12.07813c0,5.92709 -0.97917,10.45313 -2.9375,13.57813c-1.95833,3.125 -4.60937,5.28646 -7.95312,6.48438c-3.34375,1.19791 -7.09896,1.79688 -11.26563,1.79688h-6.8125v32.5625zM241.85284,157.47667h5.67188c2.08334,0 3.66146,-0.38021 4.73438,-1.14062c1.07291,-0.76041 1.78125,-1.89584 2.125,-3.40625c0.35417,-1.51041 0.53125,-3.4375 0.53125,-5.78125c0,-1.94791 -0.14583,-3.66146 -0.4375,-5.14062c-0.28125,-1.48959 -0.95834,-2.67709 -2.03125,-3.5625c-1.07291,-0.88541 -2.74479,-1.32812 -5.01562,-1.32812h-5.57812z" fill="#004cad" stroke-linecap="butt"/><path d="M278.9484,125.19542h25.74997c4.60417,0 8.39063,0.86979 11.35938,2.60938c2.96875,1.72916 5.17708,4.25 6.625,7.5625c1.45833,3.3125 2.1875,7.33854 2.1875,12.07813c0,5.92709 -0.97917,10.45313 -2.9375,13.57813c-1.95833,3.125 -4.60937,5.28646 -7.95312,6.48438c-3.34375,1.19791 -7.09896,1.79688 -11.26562,1.79688h-6.8125v32.5625h-16.9531zM295.90151,157.47667h5.67188c2.08333,0 3.66146,-0.38021 4.73438,-1.14062c1.07292,-0.76041 1.78125,-1.89584 2.125,-3.40625c0.35417,-1.51041 0.53125,-3.4375 0.53125,-5.78125c0,-1.94791 -0.14583,-3.66146 -0.4375,-5.14062c-0.28125,-1.48959 -0.95833,-2.67709 -2.03125,-3.5625c-1.07292,-0.88541 -2.74479,-1.32812 -5.01562,-1.32812h-5.57812z" fill="#004cad" stroke-linecap="butt"/><path d="M46.14724,202.0673l14.875,-41.26562c0,0 -5.09291,-22.1327 -15.20312,-42.80625c-1.82565,-3.73311 -3.95566,-6.71394 -3.95566,-6.71394c0,0 3.19432,-0.54394 5.04079,0.07291c0.21527,0.07191 0.83756,0.94693 1.01857,1.04831c1.86771,1.04599 1.23808,2.98524 3.77977,4.99784c5.35077,4.23694 5.53408,3.80138 11.51653,11.59488c2.70455,3.52329 8.02187,17.13438 8.02187,17.13438l6.8125,-20.73437h14.10938l-13.45312,39.84375l14.96875,36.82813h-15.90625l-9.375,-22.90625l-8.23437,22.90625z" fill="#004cad" stroke-linecap="butt"/><path d="M332.99709,201.8673v-76.67187h34.46875v11.54688h-17.51562v19.03125h13.34375v11.73438h-13.34375v22.90625h17.70313v11.45313z" fill="#004cad" stroke-linecap="butt"/><path d="M152.50014,201.8673v-10.21875l18.73438,-55h-17.89062v-11.45312h34.54688v9.5625l-19.01562,55.65625h19.20313v11.45313z" fill="#004cad" stroke-linecap="butt"/><path d="M196.51755,201.8673v-76.67187h16.9375v76.67188z" fill="#004cad" stroke-linecap="butt"/><path d="M105.71082,201.8673v-76.67187h19.40625c6.69792,0 11.90625,0.83854 15.625,2.51563c3.71875,1.66666 6.33334,4.28646 7.84375,7.85938c1.52084,3.5625 2.28125,8.18229 2.28125,13.85938v27.82813c0,5.73959 -0.76041,10.42709 -2.28125,14.0625c-1.51041,3.625 -4.10937,6.29166 -7.79687,8c-3.6875,1.69791 -8.84896,2.54688 -15.48437,2.54688zM122.66394,190.13292h2.64063c2.59375,0 4.45833,-0.38021 5.59375,-1.14062c1.13541,-0.76041 1.84375,-1.89584 2.125,-3.40625c0.28125,-1.51041 0.42188,-3.40104 0.42188,-5.67187v-33.42187c0,-2.27084 -0.17187,-4.09896 -0.51562,-5.48437c-0.34375,-1.39584 -1.08334,-2.40625 -2.21875,-3.03125c-1.13541,-0.63541 -2.96875,-0.95312 -5.5,-0.95312h-2.54687z" fill="#0096ff" stroke-linecap="butt"/><path d="M381.05843,201.9923v-76.67187h21.10938c5.17708,0 9.65625,0.56771 13.4375,1.70313c3.79167,1.13541 6.74479,3.17188 8.85938,6.10938c2.11458,2.9375 3.17188,7.08334 3.17188,12.4375c0,3.15625 -0.25521,5.96875 -0.76562,8.4375c-0.5,2.45834 -1.42708,4.58854 -2.78125,6.39063c-1.35417,1.79166 -3.29687,3.28646 -5.82812,4.48438l10.51563,37.10938l11.02605,32.29166c0,0 -16.26654,-10.52645 -19.87167,-14.91012c-1.89856,-2.30857 -4.31939,-5.48496 -5.83245,-8.72017c-2.32894,-4.97971 -3.42001,-10.0988 -4.25394,-12.40716c-4.67162,-15.3537 -7.00547,-30.61358 -7.00547,-30.61358h-4.82812v34.35938zM397.26156,158.00792h4.73438c2.39583,0 4.25521,-0.42709 5.57813,-1.28125c1.32292,-0.85416 2.25,-2.08334 2.78125,-3.6875c0.54167,-1.61459 0.8125,-3.55729 0.8125,-5.82812c0,-3.28125 -0.59896,-5.83334 -1.79687,-7.65625c-1.19792,-1.83334 -3.40625,-2.75 -6.625,-2.75h-5.48437z" fill="#0096ff" stroke-linecap="butt"/><path d="M229.89971,201.8673v-76.67187h25.75c4.60417,0 8.39063,0.86979 11.35938,2.60938c2.96875,1.72916 5.17708,4.25 6.625,7.5625c1.45833,3.3125 2.1875,7.33854 2.1875,12.07813c0,5.92709 -0.97917,10.45313 -2.9375,13.57813c-1.95833,3.125 -4.60937,5.28646 -7.95312,6.48438c-3.34375,1.19791 -7.09896,1.79688 -11.26562,1.79688h-6.8125v32.5625zM246.85284,157.47667h5.67188c2.08334,0 3.66146,-0.38021 4.73438,-1.14062c1.07292,-0.76041 1.78125,-1.89584 2.125,-3.40625c0.35417,-1.51041 0.53125,-3.4375 0.53125,-5.78125c0,-1.94791 -0.14583,-3.66146 -0.4375,-5.14062c-0.28125,-1.48959 -0.95833,-2.67709 -2.03125,-3.5625c-1.07292,-0.88541 -2.74479,-1.32812 -5.01563,-1.32812h-5.57812z" fill="#0096ff" stroke-linecap="butt"/><path d="M283.9484,125.19542h25.74997c4.60417,0 8.39063,0.86979 11.35938,2.60938c2.96875,1.72916 5.17708,4.25 6.625,7.5625c1.45833,3.3125 2.1875,7.33854 2.1875,12.07813c0,5.92709 -0.97917,10.45313 -2.9375,13.57813c-1.95833,3.125 -4.60937,5.28646 -7.95312,6.48438c-3.34375,1.19791 -7.09896,1.79688 -11.26562,1.79688h-6.8125v32.5625h-16.9531zM300.90151,157.47667h5.67188c2.08333,0 3.66146,-0.38021 4.73438,-1.14062c1.07292,-0.76041 1.78125,-1.89584 2.125,-3.40625c0.35417,-1.51041 0.53125,-3.4375 0.53125,-5.78125c0,-1.94791 -0.14583,-3.66146 -0.4375,-5.14062c-0.28125,-1.48959 -0.95833,-2.67709 -2.03125,-3.5625c-1.07292,-0.88541 -2.74479,-1.32812 -5.01562,-1.32812h-5.57812z" fill="#0096ff" stroke-linecap="butt"/><path d="M51.14724,202.0673l14.875,-41.26562c0,0 -5.09291,-22.1327 -15.20312,-42.80625c-1.82565,-3.73311 -3.95566,-6.71394 -3.95566,-6.71394c0,0 4.93812,2.23826 9.83913,6.11906c5.35077,4.23694 5.53408,3.80138 11.51653,11.59488c2.70455,3.52329 8.02187,17.13438 8.02187,17.13438l6.8125,-20.73437h14.10938l-13.45312,39.84375l14.96875,36.82813h-15.90625l-9.375,-22.90625l-8.23437,22.90625z" fill="#0096ff" stroke-linecap="butt"/><path d="M337.99709,201.8673v-76.67187h34.46875v11.54688h-17.51562v19.03125h13.34375v11.73438h-13.34375v22.90625h17.70313v11.45313z" fill="#0096ff" stroke-linecap="butt"/><path d="M157.50014,201.8673v-10.21875l18.73438,-55h-17.89062v-11.45312h34.54688v9.5625l-19.01562,55.65625h19.20313v11.45313z" fill="#0096ff" stroke-linecap="butt"/><path d="M201.51755,201.8673v-76.67187h16.9375v76.67188z" fill="#0096ff" stroke-linecap="butt"/><g stroke-linecap="square"><path d="M159.88807,246.31553v-33.62167h7.9253c2.73992,0 4.8781,0.37557 6.4145,1.1267c1.53641,0.74259 2.62896,1.89063 3.27766,3.44411c0.6487,1.54494 0.97306,3.50812 0.97306,5.88955v12.29125c0,2.43264 -0.32436,4.45985 -0.97306,6.08161c-0.6487,1.61323 -1.72845,2.81674 -3.23925,3.61055c-1.5108,0.78528 -3.58067,1.17791 -6.20963,1.17791zM166.0337,242.0392h1.85649c1.4169,0 2.42837,-0.24753 3.0344,-0.74259c0.60603,-0.5036 0.97733,-1.22913 1.1139,-2.17658c0.14511,-0.95598 0.21766,-2.12536 0.21766,-3.50813v-12.86739c0,-1.35716 -0.09816,-2.44972 -0.29447,-3.27767c-0.19633,-0.8365 -0.59749,-1.44678 -1.20352,-1.83088c-0.60603,-0.39263 -1.58761,-0.58895 -2.94477,-0.58895h-1.77966zM194.13718,246.77645c-2.38143,0 -4.27633,-0.44385 -5.6847,-1.33155c-1.40837,-0.8877 -2.41983,-2.1595 -3.03439,-3.81541c-0.60603,-1.66444 -0.90904,-3.63189 -0.90904,-5.90235v-12.57292c0,-2.27047 0.30301,-4.21231 0.90904,-5.82553c0.61456,-1.62176 1.62604,-2.85942 3.0344,-3.71298c1.40837,-0.8621 3.30327,-1.29314 5.6847,-1.29314c2.43264,0 4.34888,0.43104 5.74872,1.29314c1.39984,0.85356 2.4113,2.09123 3.0344,3.71298c0.62309,1.61323 0.93465,3.55508 0.93465,5.82555v12.62413c0,2.23632 -0.31155,4.17817 -0.93464,5.82554c-0.62309,1.64736 -1.63456,2.92344 -3.03439,3.82822c-1.39984,0.89623 -3.31608,1.34436 -5.74872,1.34436zM194.13718,242.24405c1.02427,0 1.7754,-0.21766 2.2534,-0.65297c0.48653,-0.44385 0.81088,-1.05415 0.97305,-1.83088c0.17072,-0.77673 0.25607,-1.62175 0.25607,-2.53507v-15.47928c0,-0.93892 -0.08535,-1.78394 -0.25607,-2.53507c-0.16217,-0.75113 -0.48653,-1.34008 -0.97305,-1.76686c-0.478,-0.42678 -1.22913,-0.64017 -2.2534,-0.64017c-0.96453,0 -1.69858,0.21339 -2.20218,0.64017c-0.49506,0.42678 -0.82795,1.01574 -0.99866,1.76686c-0.16217,0.75113 -0.24326,1.59615 -0.24326,2.53507v15.47929c0,0.91331 0.07682,1.75834 0.23046,2.53507c0.15364,0.77673 0.47799,1.38703 0.97305,1.83089c0.49506,0.43532 1.24194,0.65298 2.2406,0.65298zM209.95476,246.31553l0.58895,-33.62167h6.35047l4.77567,23.28934l4.98051,-23.28934h6.13283l0.62737,33.62167h-4.57081l-0.49932,-23.36616l-4.76286,23.36617h-3.70018l-4.85247,-23.45579l-0.46092,23.45579zM238.35857,246.31553l6.72177,-33.62167h6.55533l6.72178,33.62167h-5.6847l-1.31874,-7.75885h-5.86395l-1.36996,7.75885zM246.11742,234.65164h4.57081l-2.2918,-14.10932zM263.56202,246.31553v-33.62167h6.056v33.62167zM276.4771,246.31553v-33.62167h4.27633l8.16855,19.17946v-19.17946h5.07013v33.62167h-4.07148l-8.21976,-20.0885v20.0885zM309.22901,246.77645c-2.02294,0 -3.71298,-0.39263 -5.07014,-1.17791c-1.34862,-0.79381 -2.36862,-1.95038 -3.06,-3.46971c-0.69138,-1.52787 -1.07975,-2.92894 -1.1651,-5.13965l5.27499,-0.92001c0.05122,1.29742 0.20912,1.86015 0.47373,2.85881c0.26461,0.99867 0.66578,1.76687 1.20352,2.30461c0.53774,0.53774 1.25046,0.80661 2.13816,0.80661c0.99867,0 1.70285,-0.29447 2.11256,-0.88342c0.41825,-0.59749 0.62737,-1.35289 0.62737,-2.26619c0,-1.46812 -0.33288,-2.67164 -0.99866,-3.61056c-0.66577,-0.94745 -1.54921,-1.89063 -2.6503,-2.82954l-4.23791,-3.73859c-1.18645,-1.02427 -2.1339,-2.16377 -2.84235,-3.4185c-0.70845,-1.26326 -1.06268,-2.82101 -1.06268,-4.67323c0,-2.65457 0.77247,-4.69884 2.31742,-6.13282c1.55347,-1.44251 3.67457,-2.16376 6.36328,-2.16376c1.57908,0 2.89357,0.24327 3.94344,0.72979c1.04987,0.478 1.88636,1.14803 2.50946,2.01013c0.6231,0.85356 1.08402,1.82661 1.38277,2.91917c0.30728,1.09256 0.5036,2.6003 0.58895,3.8209l-5.23658,0.90904c-0.05122,-1.04987 -0.16644,-2.33998 -0.34569,-3.16792c-0.17924,-0.82794 -0.49933,-1.47666 -0.96025,-1.94611c-0.45238,-0.478 -1.12243,-0.71699 -2.01013,-0.71699c-0.9133,0 -1.61322,0.29875 -2.09976,0.89623c-0.47799,0.59749 -0.71699,1.34008 -0.71699,2.22779c0,1.1267 0.23473,2.05707 0.70419,2.79113c0.46946,0.73406 1.14803,1.48946 2.03574,2.2662l4.18671,3.70018c1.38277,1.16083 2.56494,2.52228 3.54654,4.08428c0.9816,1.56201 1.4724,3.45264 1.4724,5.6719c0,1.60469 -0.35423,3.03012 -1.06268,4.27632c-0.69992,1.23766 -1.68151,2.21071 -2.94477,2.91917c-1.25473,0.70846 -2.72711,1.06268 -4.41716,1.06268z" fill="#004cad"/><path d="M162.34632,246.31553v-33.62167h7.92529c2.73992,0 4.87809,0.37556 6.4145,1.1267c1.53641,0.74259 2.62896,1.89063 3.27766,3.44411c0.64871,1.54495 0.97306,3.50812 0.97306,5.88955v12.29125c0,2.43264 -0.32435,4.45985 -0.97306,6.08161c-0.64871,1.61323 -1.72845,2.81674 -3.23925,3.61055c-1.5108,0.78527 -3.58067,1.17791 -6.20963,1.17791zM168.49194,242.0392h1.85649c1.41691,0 2.42838,-0.24753 3.03441,-0.74259c0.60602,-0.5036 0.97733,-1.22913 1.1139,-2.17658c0.1451,-0.95599 0.21766,-2.12536 0.21766,-3.50813v-12.86739c0,-1.35716 -0.09816,-2.44971 -0.29448,-3.27767c-0.19631,-0.83649 -0.59749,-1.44678 -1.20352,-1.83088c-0.60602,-0.39264 -1.58762,-0.58895 -2.94478,-0.58895h-1.77967zM196.59543,246.77645c-2.38143,0 -4.27633,-0.44385 -5.6847,-1.33155c-1.40837,-0.8877 -2.41984,-2.15951 -3.0344,-3.81541c-0.60602,-1.66444 -0.90903,-3.63189 -0.90903,-5.90235v-12.57292c0,-2.27047 0.30301,-4.21231 0.90904,-5.82553c0.61456,-1.62177 1.62604,-2.85942 3.03441,-3.71298c1.40837,-0.86209 3.30327,-1.29314 5.6847,-1.29314c2.43264,0 4.34888,0.43104 5.74872,1.29314c1.39983,0.85356 2.4113,2.09122 3.0344,3.71298c0.6231,1.61323 0.93465,3.55508 0.93465,5.82555v12.62413c0,2.23632 -0.31155,4.17817 -0.93464,5.82554c-0.6231,1.64737 -1.63457,2.92344 -3.0344,3.82822c-1.39983,0.89623 -3.31607,1.34436 -5.74871,1.34436zM196.59543,242.24405c1.02427,0 1.77541,-0.21766 2.2534,-0.65297c0.48653,-0.44385 0.81088,-1.05415 0.97306,-1.83088c0.17071,-0.77674 0.25606,-1.62176 0.25606,-2.53507v-15.47928c0,-0.93891 -0.08535,-1.78393 -0.25606,-2.53507c-0.16218,-0.75114 -0.48653,-1.34009 -0.97306,-1.76686c-0.47799,-0.42677 -1.22913,-0.64017 -2.2534,-0.64017c-0.96452,0 -1.69859,0.2134 -2.20218,0.64017c-0.49507,0.42677 -0.82795,1.01573 -0.99866,1.76686c-0.16218,0.75114 -0.24326,1.59616 -0.24326,2.53507v15.47929c0,0.91331 0.07682,1.75833 0.23046,2.53507c0.15364,0.77674 0.47799,1.38703 0.97305,1.83089c0.49507,0.43532 1.24193,0.65298 2.2406,0.65298zM212.41301,246.31553l0.58895,-33.62167h6.35048l4.77567,23.28934l4.98051,-23.28934h6.13282l0.62737,33.62167h-4.5708l-0.49932,-23.36616l-4.76286,23.36617h-3.70017l-4.85247,-23.45579l-0.46093,23.45579zM240.81682,246.31553l6.72178,-33.62167h6.55533l6.72178,33.62167h-5.6847l-1.31876,-7.75885h-5.86395l-1.36996,7.75885zM248.57567,234.65164h4.57081l-2.2918,-14.10932zM266.02027,246.31553v-33.62167h6.056v33.62167zM278.93536,246.31553v-33.62167h4.27633l8.16856,19.17946v-19.17946h5.07013v33.62167h-4.07147l-8.21977,-20.0885v20.0885zM311.68725,246.77645c-2.02294,0 -3.71298,-0.39264 -5.07014,-1.17791c-1.34862,-0.79381 -2.36862,-1.95038 -3.06,-3.46971c-0.69138,-1.52787 -1.07976,-3.39716 -1.16511,-5.60788l5.27499,-1.03707c0.05122,1.2974 0.20912,2.44544 0.47373,3.44411c0.26461,0.99867 0.66578,1.76687 1.20352,2.30461c0.53774,0.53774 1.25046,0.80661 2.13817,0.80661c0.99867,0 1.70285,-0.29447 2.11256,-0.88342c0.41825,-0.59749 0.62736,-1.35289 0.62736,-2.26619c0,-1.46812 -0.33288,-2.67165 -0.99866,-3.61056c-0.66577,-0.94745 -1.54921,-1.89063 -2.6503,-2.82954l-4.23791,-3.73859c-1.18645,-1.02427 -2.1339,-2.16377 -2.84235,-3.4185c-0.70845,-1.26327 -1.06267,-2.82101 -1.06267,-4.67323c0,-2.65456 0.77247,-4.69884 2.3174,-6.13282c1.55347,-1.44251 3.67458,-2.16376 6.36329,-2.16376c1.57908,0 2.89357,0.24327 3.94344,0.72979c1.04987,0.47799 1.88636,1.14803 2.50946,2.01013c0.6231,0.85356 1.08402,1.82662 1.38277,2.91917c0.30728,1.09255 0.5036,2.24912 0.58895,3.46972l-5.23658,0.90904c-0.05122,-1.04987 -0.16644,-1.98879 -0.34569,-2.81674c-0.17924,-0.82796 -0.49933,-1.47665 -0.96025,-1.94611c-0.45238,-0.47799 -1.12242,-0.71699 -2.01012,-0.71699c-0.9133,0 -1.61322,0.29874 -2.09976,0.89623c-0.47799,0.5975 -0.71699,1.34009 -0.71699,2.22779c0,1.1267 0.23473,2.05707 0.70419,2.79113c0.46946,0.73406 1.14804,1.48946 2.03574,2.2662l4.18671,3.70018c1.38277,1.16084 2.56494,2.52228 3.54654,4.08428c0.9816,1.56201 1.47239,3.45264 1.47239,5.6719c0,1.60469 -0.35422,3.03013 -1.06268,4.27632c-0.69992,1.23766 -1.68151,2.21072 -2.94477,2.91917c-1.25473,0.70845 -2.72713,1.06268 -4.41717,1.06268z" fill="#0096ff"/></g></g></g></svg>